<svg xmlns="http://www.w3.org/2000/svg" viewBox="0 0 26.37 30.4"><defs><style>.cls-1{fill:#fff;}</style></defs><title>NotRec_White</title><g id="Layer_2" data-name="Layer 2"><g id="Layer_1-2" data-name="Layer 1"><path class="cls-1" d="M13.18,0,0,2.46l.47,14.2a11.72,11.72,0,0,0,3.49,8,30.8,30.8,0,0,0,8.88,5.64.88.88,0,0,0,.34.07h0a.88.88,0,0,0,.34-.07,30.8,30.8,0,0,0,8.88-5.64,11.72,11.72,0,0,0,3.49-8l.47-14.2ZM11.81,7.15h2.8v5.52a14.7,14.7,0,0,1-.11,1.76q-.11.87-.28,1.78h-2q-.17-.91-.28-1.78a14.7,14.7,0,0,1-.11-1.76Zm2.94,13.2a1.59,1.59,0,0,1-.36.53,1.69,1.69,0,0,1-.54.35,1.76,1.76,0,0,1-.67.13,1.79,1.79,0,0,1-.68-.12,1.63,1.63,0,0,1-1-1.53,1.6,1.6,0,0,1,.13-.65,1.63,1.63,0,0,1,.36-.52,1.68,1.68,0,0,1,.54-.35,1.72,1.72,0,0,1,.68-.13,1.69,1.69,0,0,1,.67.13,1.75,1.75,0,0,1,.54.35,1.59,1.59,0,0,1,.49,1.17A1.64,1.64,0,0,1,14.75,20.34Z"/></g></g></svg>