<svg xmlns="http://www.w3.org/2000/svg" viewBox="0 0 26.37 30.4"><defs><style>.cls-1{fill:#fff;}</style></defs><title>NotRec_White_1</title><g id="Layer_2" data-name="Layer 2"><g id="Layer_1-2" data-name="Layer 1"><path class="cls-1" d="M16.2,9.45a5.35,5.35,0,0,0-7.44,7.44Z"/><path class="cls-1" d="M10.17,18.3a5.35,5.35,0,0,0,7.44-7.44Z"/><path class="cls-1" d="M13.18,0,0,2.46l.47,14.2a11.72,11.72,0,0,0,3.49,8,30.8,30.8,0,0,0,8.88,5.64.88.88,0,0,0,.34.07h0a.88.88,0,0,0,.34-.07,30.8,30.8,0,0,0,8.88-5.64,11.72,11.72,0,0,0,3.49-8l.47-14.2Zm0,21.23a7.36,7.36,0,1,1,7.36-7.36A7.36,7.36,0,0,1,13.18,21.23Z"/></g></g></svg>