<?xml version="1.0" encoding="UTF-8"?>
<svg width="15px" height="15px" viewBox="0 0 15 15" version="1.1" xmlns="http://www.w3.org/2000/svg" xmlns:xlink="http://www.w3.org/1999/xlink">
    <!-- Generator: Sketch 46.2 (44496) - http://www.bohemiancoding.com/sketch -->
    <title>Shape</title>
    <desc>Created with Sketch.</desc>
    <defs></defs>
    <g id="Redline" stroke="none" stroke-width="1" fill="none" fill-rule="evenodd">
        <g id="14_screen&lt;=480" transform="translate(-219.000000, -789.000000)" fill-rule="nonzero" fill="#999999">
            <path d="M226.5,789 C222.333333,789 219,792.333333 219,796.5 C219,800.666667 222.333333,804 226.5,804 C230.666667,804 234,800.666667 234,796.5 C234,792.333333 230.666667,789 226.5,789 Z M226.5,800.666667 C226.5,800.666667 226.166667,800.916667 225.916667,800.916667 C225.916667,800.916667 225.916667,800.916667 225.916667,800.916667 L225.916667,800.916667 C225.833333,800.916667 225.833333,800.916667 225.75,800.916667 L225.666667,800.916667 C225.25,800.833333 225,800.416667 225.166667,800 L225.75,797.666667 L226,796.583333 C226.25,795.583333 225.25,796.75 225,796.333333 C224.833333,796 225.75,795.416667 226.5,794.916667 C226.5,794.916667 226.833333,794.666667 227.083333,794.666667 C227.083333,794.666667 227.083333,794.666667 227.083333,794.666667 L227.083333,794.666667 C227.166667,794.666667 227.166667,794.666667 227.25,794.666667 L227.333333,794.666667 C227.75,794.75 228,795.166667 227.916667,795.583333 L227.333333,797.916667 L227.083333,799 C226.833333,800 227.833333,798.75 228.083333,799.25 C228.083333,799.583333 227.166667,800.25 226.5,800.666667 Z M227.916667,793.416667 C227.75,794 227.166667,794.333333 226.583333,794.166667 C226,794 225.666667,793.416667 225.75,792.833333 C225.916667,792.25 226.5,791.916667 227.083333,792.083333 C227.75,792.25 228.083333,792.833333 227.916667,793.416667 Z" id="Shape"></path>
        </g>
    </g>
</svg>