<?xml version="1.0" encoding="UTF-8"?>
<svg width="24px" height="19px" viewBox="0 0 24 19" version="1.1" xmlns="http://www.w3.org/2000/svg" xmlns:xlink="http://www.w3.org/1999/xlink">
    <!-- Generator: Sketch 46.2 (44496) - http://www.bohemiancoding.com/sketch -->
    <title>noun_992910</title>
    <desc>Created with Sketch.</desc>
    <defs></defs>
    <g id="Redline" stroke="none" stroke-width="1" fill="none" fill-rule="evenodd">
        <g id="15_All-Details-&gt;-768px" transform="translate(-720.000000, -63.000000)" fill-rule="nonzero" fill="#3A3A3A">
            <g id="btn_toplist" transform="translate(679.000000, 62.000000)">
                <g id="noun_992910" transform="translate(41.000000, 1.000000)">
                    <path d="M23.3750799,3.00812731 L19.2557796,3.00812731 L19.2557796,0.607948122 C19.2557796,0.272360759 18.9756289,0 18.6304431,0 L5.36913954,0 C5.02395377,0 4.743803,0.272360759 4.743803,0.607948122 L4.743803,3.00812731 L0.625336541,3.00812731 C0.28015077,3.00812731 0,3.28048807 0,3.61607543 L0,12.1042471 C0,12.4398345 0.28015077,12.7121952 0.625336541,12.7121952 L4.8551129,12.7121952 L4.8551129,18.3920519 C4.8551129,18.7276392 5.13526367,19 5.48044944,19 L18.5195501,19 C18.8647359,19 19.1448866,18.7276392 19.1448866,18.3920519 L19.1448866,12.7126005 L23.374663,12.7126005 C23.7198488,12.7126005 23.9999995,12.4402398 23.9999995,12.1046524 L23.9999995,3.61607543 C24.0004164,3.28048807 23.7202657,3.00812731 23.3750799,3.00812731 Z M5.99447608,1.21630154 L18.0055235,1.21630154 L18.0055235,3.00853261 L5.99447608,3.00853261 L5.99447608,1.21630154 Z M17.8946304,17.7841038 L6.10578598,17.7841038 L6.10578598,9.10341518 L17.8942136,9.10341518 L17.8942136,17.7841038 L17.8946304,17.7841038 Z M22.7497433,11.4967043 L19.1453035,11.4967043 L19.1453035,8.49587235 C19.1453035,8.16028499 18.8651528,7.88792423 18.519967,7.88792423 L5.48044944,7.88792423 C5.13526367,7.88792423 4.8551129,8.16028499 4.8551129,8.49587235 L4.8551129,11.4967043 L1.25067308,11.4967043 L1.25067308,4.22402355 L22.7497433,4.22402355 L22.7497433,11.4967043 Z M8.297799,12.6007381 L15.7009499,12.6007381 C16.0461356,12.6007381 16.3262864,12.3283773 16.3262864,11.9927899 C16.3262864,11.6572026 16.0461356,11.3848418 15.7009499,11.3848418 L8.297799,11.3848418 C7.95261323,11.3848418 7.67246246,11.6572026 7.67246246,11.9927899 C7.67246246,12.3283773 7.95261323,12.6007381 8.297799,12.6007381 Z M8.297799,15.5030824 L15.7009499,15.5030824 C16.0461356,15.5030824 16.3262864,15.2307216 16.3262864,14.8951343 C16.3262864,14.5595469 16.0461356,14.2871862 15.7009499,14.2871862 L8.297799,14.2871862 C7.95261323,14.2871862 7.67246246,14.5595469 7.67246246,14.8951343 C7.67246246,15.2307216 7.95261323,15.5030824 8.297799,15.5030824 Z" id="Shape"></path>
                </g>
            </g>
        </g>
    </g>
</svg>