<svg xmlns="http://www.w3.org/2000/svg" viewBox="0 0 26.37 30.4"><defs><style>.cls-1{fill:#f25555;}.cls-2{fill:#fff;}</style></defs><title>NotRec_Red</title><g id="Layer_2" data-name="Layer 2"><g id="Layer_1-2" data-name="Layer 1"><path class="cls-1" d="M13.18,30.4a.88.88,0,0,0,.34-.07,30.8,30.8,0,0,0,8.88-5.64,11.72,11.72,0,0,0,3.49-8l.47-14.2L13.18,0,0,2.46l.47,14.2a11.72,11.72,0,0,0,3.49,8,30.8,30.8,0,0,0,8.88,5.64.88.88,0,0,0,.34.07"/><path class="cls-2" d="M13.18,21.23a7.36,7.36,0,1,1,7.36-7.36A7.36,7.36,0,0,1,13.18,21.23Zm0-12.71a5.36,5.36,0,1,0,5.36,5.36A5.36,5.36,0,0,0,13.18,8.52Z"/><rect class="cls-2" x="6.5" y="12.87" width="13.37" height="2" transform="translate(-5.95 13.39) rotate(-45)"/></g></g></svg>