<svg xmlns="http://www.w3.org/2000/svg" viewBox="0 0 26.37 30.39"><defs><style>.cls-1{fill:#23b5e8;}.cls-2{fill:#fff;}</style></defs><title>UseRes_Blue</title><g id="Layer_2" data-name="Layer 2"><g id="Layer_1-2" data-name="Layer 1"><path class="cls-1" d="M0,2.46.55,19c0,5.74,10.23,10.49,12.3,11.35a.89.89,0,0,0,.68,0c2.07-.86,12.3-5.61,12.3-11.35l.55-16.51L13.18,0Z"/><path class="cls-2" d="M12,18.5a1.06,1.06,0,0,1-.7-.26L7.07,14.53a1.06,1.06,0,0,1,1.4-1.59L11.94,16l6.92-6.78a1.06,1.06,0,1,1,1.48,1.51l-7.62,7.47A1.05,1.05,0,0,1,12,18.5Z"/></g></g></svg>