<svg width="53" height="56" xmlns="http://www.w3.org/2000/svg" xmlns:xlink="http://www.w3.org/1999/xlink"><defs><path id="a" d="M0 51.618h51.98V0H0z"/></defs><g fill="none" fill-rule="evenodd"><path d="M3.517 3.598v36.195H.001v1.614h20.65l-6.187 13.125 1.472.684 3.816-8.097h12.48l3.816 8.097 1.47-.684-6.186-13.125h20.65v-1.614h-3.517V3.598H3.517zm1.625 36.195H46.84V5.21H5.142v34.582zm17.301 1.614h7.092l1.935 4.101H20.512l1.931-4.101z" fill="#239710"/><path fill="#239710" d="M18.167 13.386h23.2v-1.612h-23.2zm0 6.601h23.2v-1.613h-23.2z"/><g transform="translate(0 4.136)"><path d="M13.132 12.545a2.512 2.512 0 0 1 2.517 2.5 2.51 2.51 0 0 1-2.517 2.499 2.51 2.51 0 0 1-2.518-2.5c0-1.379 1.13-2.5 2.518-2.5z" fill="#99D2A1"/><mask id="b" fill="#fff"><use xlink:href="#a"/></mask><path fill="#239710" mask="url(#b)" d="M18.167 22.45h23.2v-1.613h-23.2z"/><path d="M10.614 21.643a2.51 2.51 0 0 0 2.518 2.5 2.51 2.51 0 0 0 2.517-2.5c0-1.379-1.13-2.5-2.517-2.5a2.512 2.512 0 0 0-2.518 2.5z" fill="#99D2A1" mask="url(#b)"/><path fill="#239710" mask="url(#b)" d="M18.167 29.05h23.2v-1.612h-23.2z"/><path d="M13.132 25.743a2.512 2.512 0 0 0-2.518 2.5c0 1.378 1.129 2.5 2.518 2.5a2.51 2.51 0 0 0 2.517-2.5c0-1.38-1.13-2.5-2.517-2.5" fill="#99D2A1" mask="url(#b)"/><path fill="#239710" mask="url(#b)" d="M12.469 8.147 11.15 6.865l-1.138 1.15 2.583 2.515 3.71-4.476-1.253-1.024z"/></g></g></svg>