<svg width="53" height="56" xmlns="http://www.w3.org/2000/svg"><g fill="none" fill-rule="evenodd"><path stroke="#299A17" stroke-width="2.24" stroke-linecap="round" stroke-linejoin="round" d="M10.92 38.033 28.824 19.81l17.644 18.997"/><path d="M28.657 11.33c-.371 0-.742.142-1.027.427L5.87 33.527a1.45 1.45 0 0 0 0 2.053l4.352 3.103c.283.283.654.425 1.025.425v14.315c0 .801.65 1.45 1.45 1.45h31.918a1.45 1.45 0 0 0 1.451-1.45V39.108c.371 0 .742-.142 1.025-.425l4.352-3.103a1.45 1.45 0 0 0 0-2.053l-5.377-5.38V15.683a1.45 1.45 0 0 0-1.451-1.45h-5.803a1.45 1.45 0 0 0-1.451 1.45v3.754l-7.678-7.681a1.446 1.446 0 0 0-1.026-.427z" stroke="#299A17" stroke-width="2.24"/><path d="M26.533 32.053c0 7.02-5.688 12.71-12.704 12.71-7.017 0-12.705-5.69-12.705-12.71 0-7.02 5.688-12.71 12.705-12.71 7.016 0 12.704 5.69 12.704 12.71" fill="#FFF"/><path d="M13.829 20.468c-6.386 0-11.58 5.197-11.58 11.584 0 6.389 5.194 11.586 11.58 11.586 6.385 0 11.58-5.197 11.58-11.586 0-6.387-5.195-11.584-11.58-11.584m0 25.42C6.203 45.888 0 39.681 0 32.052 0 24.424 6.203 18.22 13.829 18.22s13.828 6.205 13.828 13.833c0 7.629-6.202 13.836-13.828 13.836" fill="#299A17"/><path d="M13.791 40.536 6.818 33.54c-.795-.837-1.203-1.96-1.203-3.09a4.48 4.48 0 0 1 1.219-3.103 3.967 3.967 0 0 1 2.89-1.266c1.04.003 2.077.414 2.887 1.266.2.207.372.432.522.672.15.24.412.386.694.386a.827.827 0 0 0 .698-.385c.15-.242.324-.466.52-.672.81-.852 1.849-1.264 2.89-1.267a3.96 3.96 0 0 1 2.89 1.266 4.486 4.486 0 0 1 1.218 3.103 4.496 4.496 0 0 1-1.215 3.102l-7.037 6.984z" fill="#99D2A1"/></g></svg>