<svg width="53" height="56" xmlns="http://www.w3.org/2000/svg"><g fill="none" fill-rule="evenodd"><path d="M32.036 26.907a8.024 8.024 0 1 1-16.048 0 8.024 8.024 0 0 1 16.048 0" fill="#99D2A1"/><path d="M32.036 26.907a8.024 8.024 0 1 1-16.048 0 8.024 8.024 0 0 1 16.048 0z" stroke="#99D2A1" stroke-width="2.28"/><path d="M32.036 26.907a8.024 8.024 0 1 1-16.048 0 8.024 8.024 0 0 1 16.048 0zM37.94 50.22c.015-.271.04-.54.04-.814 0-7.715-6.254-13.969-13.968-13.969-7.715 0-13.969 6.254-13.969 13.969 0 .274.026.543.042.814" stroke="#299A17" stroke-width="2.28"/><path d="M46.074 33.012c0-12.185-9.877-22.062-22.062-22.062S1.95 20.827 1.95 33.012s9.877 22.062 22.062 22.062 22.062-9.877 22.062-22.062z" stroke="#299A17" stroke-width="2.28"/></g></svg>