<svg width="53" height="56" xmlns="http://www.w3.org/2000/svg"><g fill="none" fill-rule="evenodd"><path d="M48.517 15.608h-6.175V5.203C42.342 2.34 39.96 0 37.05 0H15.88c-2.912 0-5.293 2.341-5.293 5.203V20.81H4.41C1.94 20.81 0 22.718 0 25.146v3.469c0 2.428 1.94 4.335 4.41 4.335v5.203c0 .347.177.694.53.78.088.087.265.087.353.087a.807.807 0 0 0 .617-.26l4.676-4.596v16.129c0 2.861 2.381 5.202 5.292 5.202H37.05c2.911 0 5.293-2.34 5.293-5.202v-12.66l4.675 4.595c.177.174.353.26.618.26.088 0 .265 0 .353-.086.353-.174.53-.434.53-.78v-5.203c2.469 0 4.41-1.908 4.41-4.336v-12.14c0-2.427-1.941-4.335-4.41-4.335zm-37.05 15.608c-.088 0-.264 0-.352.087-.088.087-.177.087-.265.173l-4.675 4.596v-3.989c0-.52-.353-.867-.882-.867H4.41c-1.5 0-2.647-1.127-2.647-2.601v-3.469c0-1.474 1.147-2.601 2.647-2.601h11.467c1.5 0 2.647 1.127 2.647 2.601v3.469c0 1.474-1.147 2.601-2.647 2.601h-4.41zm29.11 15.608H12.35V32.95h3.528c2.47 0 4.411-1.907 4.411-4.335v-3.469c0-2.428-1.94-4.335-4.41-4.335h-3.53V8.67h28.229v6.937H27.346c-2.47 0-4.41 1.908-4.41 4.336v12.14c0 2.427 1.94 4.335 4.41 4.335h13.232v10.405zm10.586-14.74c0 1.473-1.146 2.6-2.646 2.6h-.882c-.53 0-.882.347-.882.868v3.988l-4.675-4.595c-.089-.087-.177-.174-.265-.174-.088-.086-.265-.086-.353-.086H27.346c-1.5 0-2.646-1.128-2.646-2.602v-12.14c0-1.473 1.146-2.6 2.646-2.6h21.171c1.5 0 2.646 1.127 2.646 2.6v12.14z" fill="#299A17"/><path d="M46.753 19.944H29.11c-.529 0-.882.346-.882.867 0 .52.353.867.882.867h17.643c.53 0 .882-.347.882-.867s-.353-.867-.882-.867zm0 3.468h-7.057c-.53 0-.882.347-.882.867s.353.867.882.867h7.057c.53 0 .882-.347.882-.867s-.353-.867-.882-.867zm0 3.468H31.757c-.53 0-.882.347-.882.868 0 .52.352.867.882.867h14.996c.53 0 .882-.347.882-.867s-.353-.867-.882-.867zm0 3.469H35.285c-.53 0-.882.347-.882.867s.353.867.882.867h11.468c.53 0 .882-.347.882-.867s-.353-.867-.882-.867zM7.057 26.013h-.882c-.53 0-.882.347-.882.868 0 .52.353.867.882.867h.882c.53 0 .882-.347.882-.867s-.353-.868-.882-.868zm3.529 0h-.883c-.529 0-.882.347-.882.868 0 .52.353.867.882.867h.883c.529 0 .882-.347.882-.867s-.353-.868-.882-.868zm3.528 0h-.882c-.53 0-.882.347-.882.868 0 .52.353.867.882.867h.882c.53 0 .882-.347.882-.867s-.353-.868-.882-.868z" fill="#299A17"/><path d="M40.578 50.293c0 1.907-1.588 3.468-3.529 3.468H15.88c-1.941 0-3.53-1.56-3.53-3.468v-1.735h28.229v1.735zM12.35 5.203c0-1.908 1.588-3.469 3.528-3.469H37.05c1.941 0 3.529 1.561 3.529 3.469v1.734H12.35V5.203z" fill="#99D2A1"/><path d="M22.935 52.027h7.057c.53 0 .883-.347.883-.867s-.353-.867-.883-.867h-7.057c-.529 0-.882.346-.882.867 0 .52.353.867.882.867z" fill="#299A17"/></g></svg>