<svg width="53" height="56" xmlns="http://www.w3.org/2000/svg"><g fill="none" fill-rule="evenodd"><path d="M2.302 33.778V19.722c1.685.488 3.4.74 5.045.74 4.392 0 8.076-1.783 10.555-5.069-.078.375-.078 37.775 0 37.632-2.653-1.267-15.6-8.038-15.6-19.247" fill="#99D2A1"/><path d="M2.302 33.778V19.722c1.685.488 3.4.74 5.045.74 4.392 0 8.076-1.783 10.555-5.069-.078.375-.078 37.775 0 37.632-2.653-1.267-15.6-8.038-15.6-19.247z" stroke="#99D2A1" stroke-width="1.2"/><path d="M20.676 15.017a11.44 11.44 0 0 1-1.632-2.24c-.427-.756-1.66-.756-2.088 0-2.53 4.499-6.57 5.443-9.511 5.443-1.888 0-3.898-.39-5.816-1.132a1.187 1.187 0 0 0-1.108.132c-.327.227-.521.6-.521.999v15.737C0 40.25 3.396 45.2 7.2 48.779l2.4 2.053c3.91 3.053 7.603 4.675 7.93 4.815a1.18 1.18 0 0 0 .94 0C19.185 55.341 36 47.965 36 33.956V18.219c0-.4-.195-.772-.52-.999a1.187 1.187 0 0 0-1.11-.132c-1.917.741-3.927 1.132-5.815 1.132-1.795 0-4-.356-6.02-1.655M2.4 33.955V19.9c1.685.49 3.4.74 5.045.74 4.392 0 8.076-1.782 10.555-5.068 2.48 3.286 6.163 5.069 10.555 5.069 1.644 0 3.361-.252 5.045-.74v14.056c0 11.189-12.95 17.975-15.6 19.247-2.653-1.269-15.6-8.039-15.6-19.247" fill="#299A17"/><path d="M26.947 27.621a1.324 1.324 0 0 0-1.887 0l-9.728 9.813-4.392-4.43a1.326 1.326 0 0 0-1.887 0 1.356 1.356 0 0 0 0 1.903l5.334 5.382a1.324 1.324 0 0 0 1.887 0l10.673-10.765a1.352 1.352 0 0 0 0-1.903" fill="#299A17"/></g></svg>