<svg width="53" height="56" xmlns="http://www.w3.org/2000/svg" xmlns:xlink="http://www.w3.org/1999/xlink"><defs><path id="a" d="M35.7 34.048H0V.028h35.7v34.02z"/><path id="c" d="M0 53.69h45.578V1.172H0z"/></defs><g fill="none" fill-rule="evenodd"><path fill="#99D2A1" d="m17.901 22.48 4.912 9.916 10.983 1.59-7.947 7.72 1.875 10.899-9.823-5.147-9.824 5.147 1.877-10.9-7.948-7.719 10.984-1.59z"/><g transform="translate(0 1.137)"><path stroke="#99D2A1" stroke-width="1.2" d="m17.901 21.344 4.912 9.915 10.983 1.59-7.947 7.72 1.875 10.899-9.823-5.147-9.824 5.147 1.877-10.9-7.948-7.719 10.984-1.59z"/><g transform="translate(0 19.643)"><mask id="b" fill="#fff"><use xlink:href="#a"/></mask><path d="M17.85.028c-.744 0-1.423.42-1.753 1.086L11.64 10.11l-9.966 1.443A1.954 1.954 0 0 0 .095 12.88a1.942 1.942 0 0 0 .496 1.997l7.211 7.003L6.1 31.77a1.952 1.952 0 0 0 2.836 2.053l8.914-4.669 8.913 4.67a1.952 1.952 0 0 0 2.836-2.053l-1.701-9.891 7.211-7.003a1.942 1.942 0 0 0 .496-1.997 1.955 1.955 0 0 0-1.579-1.326l-9.966-1.443-4.457-8.997A1.956 1.956 0 0 0 17.85.028m0 1.947 4.911 9.917 10.984 1.589-7.948 7.72L27.674 32.1l-9.824-5.146L8.026 32.1l1.876-10.9-7.947-7.72 10.983-1.588 4.912-9.917" fill="#299A17" mask="url(#b)"/></g><mask id="d" fill="#fff"><use xlink:href="#c"/></mask><path d="M33.003 19.1h2.287v-8.585h-2.287v8.586zm2.72-11.758c0 .21-.043.412-.128.603a1.664 1.664 0 0 1-.347.501 1.588 1.588 0 0 1-1.12.464c-.21 0-.41-.042-.598-.123a1.642 1.642 0 0 1-.498-.34 1.578 1.578 0 0 1-.34-.502 1.524 1.524 0 0 1-.123-.603c0-.217.041-.421.123-.611a1.59 1.59 0 0 1 .838-.843 1.57 1.57 0 0 1 1.208 0c.196.08.365.195.51.339.144.144.26.311.347.504.085.19.129.394.129.612z" fill="#299A17" mask="url(#d)"/><path d="M34.146 2.942c-5.324 0-9.656 4.317-9.656 9.621 0 4.326 2.931 8.14 7.125 9.274l.656.177v4.316l4.295-4.457.231-.067c4.124-1.172 7.005-4.975 7.005-9.243 0-5.304-4.332-9.62-9.656-9.62m-2.049 25.424c-.111 0-.4 0-.68-.155-.558-.22-.922-.775-.922-1.439v-3.426c-4.614-1.549-7.78-5.889-7.78-10.784 0-6.28 5.128-11.391 11.431-11.391 6.304 0 11.432 5.111 11.432 11.391 0 4.975-3.3 9.412-8.06 10.876l-4.279 4.443c-.336.333-.704.485-1.142.485" fill="#299A17" mask="url(#d)"/></g></g></svg>