<svg id="Layer_1" xmlns="http://www.w3.org/2000/svg" viewBox="0 0 21 21"><style>.st0{fill:#231f20}</style><path class="st0" d="M10.9 8.9c-.9 0-1.7.8-1.7 1.7 0 .9.7 1.6 1.6 1.6.9 0 1.7-.7 1.7-1.6 0-.9-.7-1.7-1.6-1.7z"/><path class="st0" d="M10.7.4C5.1.4.5 5 .5 10.6s4.6 10.2 10.2 10.2 10.2-4.6 10.2-10.2S16.3.4 10.7.4zM16 10.8V13c0 1.2-.6 2.1-1.7 2.7-.4.2-.9.3-1.4.3H8.7c-1.1 0-2-.5-2.6-1.5-.3-.4-.4-.9-.4-1.3V8.6c0-1.1.5-1.8 1.4-2.4.5-.3 1.1-.5 1.7-.5h4.1c1.1 0 1.9.4 2.6 1.3.4.3.5.9.5 1.5v2.3z"/><path class="st0" d="M13 6.4H8.8c-.4 0-.8.1-1.2.3-.7.4-1.1 1-1.1 1.9v4.5c0 .4.1.8.4 1.1.5.6 1.1 1 1.9 1H13c.3 0 .6-.1.9-.2.8-.3 1.4-1.1 1.4-2V8.5c0-.4-.1-.8-.4-1.1-.5-.6-1.1-1-1.9-1zM10.9 13c-1.3 0-2.4-1.1-2.4-2.4s1.1-2.4 2.4-2.4c1.3 0 2.4 1.1 2.4 2.4S12.2 13 10.9 13zm2.7-4.5c-.3 0-.5-.2-.5-.5s.2-.5.5-.5.5.2.5.5-.2.5-.5.5z"/></svg>