<svg id="Layer_1" xmlns="http://www.w3.org/2000/svg" viewBox="0 0 21 21"><style>.st0{fill:#231f20}</style><g id="Visual_V4"><g id="Desktop-_x28_970-and-above_x29_" transform="translate(-1137 -581)"><g id="instagram" transform="translate(1138 581.874)"><path class="st0" d="M9.7 19.9C4.1 19.9-.5 15.3-.5 9.7S4.1-.5 9.7-.5 19.9 4.1 19.9 9.7 15.3 19.9 9.7 19.9zM9.7.5C4.6.5.5 4.6.5 9.7s4.1 9.2 9.2 9.2 9.2-4.1 9.2-9.2S14.7.5 9.7.5z" id="Oval"/><path class="st0" d="M15 9.9v2.2c0 1.2-.6 2.1-1.7 2.7-.4.2-.9.3-1.4.3H7.7c-1.1 0-2-.5-2.6-1.5-.3-.4-.4-.9-.4-1.3V7.7c0-1.1.5-1.8 1.4-2.4.5-.3 1.1-.5 1.7-.5h4.1c1.1 0 1.9.4 2.6 1.3.4.3.5.9.5 1.5v2.3zm-.7 0V7.6c0-.4-.1-.8-.4-1.1-.5-.6-1.1-1-1.9-1H7.8c-.4 0-.8.1-1.2.3-.7.4-1.1 1-1.1 1.9v4.5c0 .4.1.8.4 1.1.5.6 1.1 1 1.9 1H12c.3 0 .6-.1.9-.2.8-.3 1.4-1.1 1.4-2V9.9z" id="Shape"/><path class="st0" d="M9.9 12.1c-1.3 0-2.4-1.1-2.4-2.4 0-1.3 1.1-2.4 2.4-2.4s2.4 1.1 2.4 2.4c0 1.3-1.1 2.4-2.4 2.4zm0-4.1c-.9 0-1.7.8-1.7 1.7 0 .9.7 1.6 1.6 1.6.9 0 1.7-.7 1.7-1.6 0-.9-.7-1.7-1.6-1.7z" id="Shape_1_"/><path class="st0" d="M13.1 7.1c0 .3-.2.5-.5.5s-.5-.2-.5-.5.2-.5.5-.5.5.2.5.5z" id="Shape_2_"/></g></g></g></svg>