<svg id="Layer_1" xmlns="http://www.w3.org/2000/svg" viewBox="0 0 22 22"><style>.st0{fill:#231f20}</style><g id="Visual_V4"><g id="Desktop-_x28_970-and-above_x29_" transform="translate(-1137 -640)"><g id="Pinterest-" transform="translate(1138 641.437)"><path class="st0" d="M10 20.5C4.2 20.5-.5 15.8-.5 10S4.2-.5 10-.5 20.5 4.2 20.5 10 15.8 20.5 10 20.5zm0-20C4.8.5.5 4.8.5 10s4.3 9.5 9.5 9.5 9.5-4.3 9.5-9.5S15.2.5 10 .5z" id="Shape"/><path class="st0" d="M13.4 12.1c-.7.5-1.6.7-2.5.5-.5-.1-.9-.4-1.2-.7-.2.6-.3 1.1-.5 1.7-.2.9-.7 1.6-1.2 2.3l-.1.1-.1-.1c-.2-1-.1-2.1.2-3.1.3-1 .5-2 .7-3v-.3c-.2-.6-.2-1.3 0-1.9.2-.4.5-.7 1-.8.6-.1 1.1.3 1.1.9 0 .4-.1.7-.2 1.1-.1.5-.3 1-.4 1.4-.2.7.3 1.3 1 1.4.6 0 1.1-.2 1.4-.7.5-.6.7-1.2.8-1.9.1-.5.1-1.1 0-1.6-.2-.8-.6-1.4-1.4-1.7-1.2-.7-2.5-.6-3.6.2-1 .7-1.5 2.1-1.2 3.2.1.3.2.5.4.8.1.1.1.3.1.4 0 .1-.1.3-.1.4-.1.3-.3.3-.5.2-.5-.2-.9-.6-1.1-1.1-.4-1-.4-2 0-2.9.5-1.2 1.4-2 2.7-2.5 1.5-.5 3-.5 4.5.2 1.1.6 1.9 1.5 2 2.8.2 1.8-.2 3.5-1.8 4.7z" id="Shape-path"/></g></g></g></svg>