<svg id="Layer_1" xmlns="http://www.w3.org/2000/svg" viewBox="0 0 20 21"><style>.st0{fill:#231f20}</style><g id="Visual_V4"><g id="Desktop-_x28_970-and-above_x29_" transform="translate(-1138 -552)"><g id="twitter" transform="translate(1138 552.782)"><path class="st0" d="M14.2 6.9c.4-.3.6-.6.7-1-.5.2-1.3.6-1.5.4-.3-.2-.5-.4-.8-.5-1.3-.4-2.6.6-2.6 2v.4C8.2 8.1 7 7.3 5.9 6c-.5.6-.3 2 .5 2.7h-.1c-.2 0-.4 0-.7-.1.1.5.2.9.4 1.2.3.4.6.6 1 .8-.2.1-.4.1-.7.1 0 .3.3.9 1.3 1.3.2.1.4.1.4.1s-.4.6-2.3.8h-.5v.1c1.7.9 4 1.1 5.8.2 2.1-1 2.6-2.8 2.8-5.1 0-.3.1-.4.2-.5.3-.2.7-.7.7-.8 0 0-.2.1-.5.1z" id="Fill-1-path"/></g></g></g><g id="Visual_V4_1_"><g id="Desktop-_x28_970-and-above_x29__1_" transform="translate(-1137 -670)"><g id="linkedin" transform="translate(1138 671.218)"><g id="Pinterest--Copy"><path class="st0" d="M9 19.2c-5.5 0-9.9-4.4-9.9-9.9S3.5-.6 9-.6s9.9 4.4 9.9 9.9-4.4 9.9-9.9 9.9zM9 .3c-4.9 0-9 4.1-9 9s4.1 9 9 9 9-4.1 9-9-4.1-9-9-9z" id="Shape"/></g></g></g></g></svg>