<svg id="Layer_1" xmlns="http://www.w3.org/2000/svg" viewBox="0 0 305 81"><style>.st0{fill:#30a448}.st1{fill:#3b3b3c}</style><path class="st0" d="M71.541 42.338c-.435 7.337-3.435 14.547-9.029 20.141-5.874 5.87-13.678 9.107-21.984 9.107-8.303 0-16.109-3.237-21.978-9.107-5.872-5.871-9.108-13.676-9.108-21.981 0-8.301 3.236-16.111 9.108-21.98 5.865-5.87 13.676-9.106 21.977-9.106 8.308 0 16.111 3.237 21.985 9.106a30.08 30.08 0 0 1 2.831 3.273l5.957-7.268a40.814 40.814 0 0 0-2.291-2.501C61.405 4.409 51.29.222 40.526.222c-10.762 0-20.868 4.187-28.476 11.793C4.444 19.624.249 29.741.249 40.498c0 10.759 4.194 20.876 11.802 28.482 7.607 7.611 17.714 11.799 28.477 11.799 10.762 0 20.877-4.188 28.481-11.799 9.91-9.909 13.559-23.731 10.97-36.533l-8.438 9.891z"/><path class="st1" d="M44.408 58.809h-.055c-6.771 0-11.156-4.942-11.862-5.717L21.582 41.416c-1.632-1.705-1.566-4.529.141-6.154 1.711-1.632 4.413-1.622 6.034.085L38.793 46.89s2.403 2.482 5.668 2.447c2.611-.017 5.366-1.597 8.191-4.683L84.091 6.56a4.283 4.283 0 0 1 6.015-.574 4.275 4.275 0 0 1 .571 6.008L59.033 50.782c-4.548 5.016-9.469 8.027-14.625 8.027zm77.363-24.486c-7.485 0-12.798-5.293-12.798-14.608 0-9.891 5.872-14.969 13.018-14.969 3.638 0 6.327 1.009 8.447 2.423l-.947 6.372c-2.296-1.834-4.48-2.662-7.103-2.662-3.85 0-6.649 3.004-6.649 8.663 0 5.891 3.017 8.722 7.099 8.722 2.339 0 4.463-.65 6.981-2.716l.904 6.01c-2.746 2.009-5.544 2.765-8.952 2.765zm24.202.064c-7.322 0-12.64-5.539-12.64-14.783 0-9.255 5.373-14.858 12.697-14.858 7.373 0 12.743 5.603 12.743 14.858 0 9.244-5.43 14.783-12.8 14.783zm0-23.804c-3.964 0-6.089 3.716-6.089 9.021 0 5.181 2.184 9.009 6.089 9.009 4.143 0 6.268-3.709 6.268-9.009 0-5.247-2.247-9.021-6.268-9.021zm49.299 23.218V15.178c0-2.474-.847-4.18-3.293-4.18-2.076 0-4.024 1.423-5.984 3.53v19.273h-6.709V15.178c0-2.474-.888-4.18-3.356-4.18-2.065 0-4.02 1.423-5.976 3.53v19.273h-6.716V5.347h5.705l.618 4.002c2.52-2.534 5.246-4.602 8.889-4.602 3.857 0 5.919 1.846 6.934 4.602 2.399-2.534 5.353-4.602 8.991-4.602 5.091 0 7.599 3.249 7.599 8.557v20.497h-6.702zm45.096 0V15.178c0-2.474-.835-4.18-3.284-4.18-2.083 0-4.034 1.423-5.996 3.53v19.273h-6.707V15.178c0-2.474-.886-4.18-3.341-4.18-2.071 0-4.026 1.423-5.993 3.53v19.273h-6.699V5.347h5.693l.623 4.002c2.52-2.534 5.263-4.602 8.889-4.602 3.857 0 5.912 1.846 6.931 4.602 2.406-2.534 5.366-4.602 9-4.602 5.079 0 7.595 3.249 7.595 8.557v20.497h-6.711zm24.325.586c-7.327 0-12.635-5.539-12.635-14.783 0-9.255 5.359-14.858 12.678-14.858 7.378 0 12.746 5.603 12.746 14.858 0 9.244-5.418 14.783-12.789 14.783zm0-23.804c-3.972 0-6.089 3.716-6.089 9.021 0 5.181 2.177 9.009 6.089 9.009 4.125 0 6.249-3.709 6.249-9.009 0-5.247-2.231-9.021-6.249-9.021zm33.401 23.218V15.178c0-2.474-1.016-4.18-3.478-4.18-2.124 0-4.177 1.423-6.132 3.588V33.8h-6.707V5.347h5.692l.609 4.002c2.52-2.534 5.38-4.602 9.001-4.602 5.036 0 7.714 3.249 7.714 8.557v20.497h-6.699zm-177.74 43.133c-3.912 0-7.941-1.297-10.509-2.774l.891-5.892c2.912 2.007 6.49 3.365 9.836 3.365 2.905 0 4.477-1.122 4.477-2.948 0-2.004-1.169-2.825-5.478-3.947-6.547-1.766-9.273-3.771-9.273-8.956 0-4.891 3.676-8.358 9.945-8.358 3.52 0 6.76.702 9.439 1.994l-.898 5.899c-2.671-1.601-5.869-2.599-8.54-2.599-2.523 0-3.745.997-3.745 2.599 0 1.531 1.005 2.355 5.015 3.477 7.005 1.884 9.741 3.889 9.741 9.244-.001 5.593-3.808 8.896-10.901 8.896zm37.78-13.375h-17.319c.322 5.546 3.113 7.957 7.253 7.957 3.475 0 6.315-1.357 9.285-3.534l.781 5.534c-2.912 2.121-6.43 3.484-10.791 3.484-7.542 0-13.183-4.55-13.183-14.79 0-9.254 5.242-14.854 12.285-14.854 8.113 0 11.745 6.42 11.745 14.49-.001.592-.056 1.303-.056 1.713zm-11.855-11.307c-2.685 0-4.857 2.229-5.37 6.886h10.731c-.438-4.422-2.111-6.886-5.361-6.886zm33.293 24.156V57.79c0-2.472-1.005-4.193-3.456-4.193-2.127 0-4.206 1.42-6.151 3.597v19.213h-6.712V47.952h5.707l.616 4.002c2.513-2.534 5.368-4.598 8.991-4.598 5.026 0 7.714 3.247 7.714 8.551v20.501h-6.709zm21.462.526c-3.91 0-7.929-1.297-10.506-2.774l.891-5.892c2.91 2.007 6.487 3.365 9.841 3.365 2.898 0 4.468-1.122 4.468-2.948 0-2.004-1.164-2.825-5.47-3.947-6.551-1.766-9.277-3.771-9.277-8.956 0-4.891 3.69-8.358 9.944-8.358 3.515 0 6.757.702 9.445 1.994l-.895 5.899c-2.687-1.601-5.865-2.599-8.55-2.599-2.516 0-3.735.997-3.735 2.599 0 1.531 1.005 2.355 5.019 3.477 6.991 1.884 9.721 3.889 9.721 9.244.002 5.593-3.791 8.896-10.896 8.896zm37.775-13.375h-17.311c.341 5.546 3.133 7.957 7.265 7.957 3.456 0 6.301-1.357 9.282-3.534l.764 5.534C235.914 75.637 232.396 77 228.031 77c-7.538 0-13.19-4.55-13.19-14.79 0-9.254 5.256-14.854 12.302-14.854 8.093 0 11.728 6.42 11.728 14.49 0 .592-.062 1.303-.062 1.713zm-11.831-11.307c-2.682 0-4.867 2.229-5.373 6.886h10.736c-.451-4.422-2.127-6.886-5.363-6.886zM248.607 56.561c-2.666 0-4.484-1.896-4.484-4.601 0-2.686 1.836-4.582 4.484-4.582 2.666 0 4.483 1.896 4.483 4.601.001 2.686-1.838 4.582-4.483 4.582zm0-8.729c-2.312 0-3.95 1.639-3.95 4.127 0 2.508 1.659 4.148 3.95 4.148 2.311 0 3.971-1.639 3.971-4.128 0-2.507-1.68-4.147-3.971-4.147zm1.343 6.578l-1.52-2.173h-.554v2.113h-.73v-5.095h1.382c1.065 0 1.757.553 1.757 1.482 0 .75-.454 1.224-1.067 1.402l1.501 2.093-.769.178zm-1.441-4.485h-.654v1.719h.633c.65 0 1.067-.296 1.067-.869 0-.553-.375-.85-1.046-.85z"/></svg>