<?xml version="1.0" encoding="UTF-8" standalone="no"?>
<svg width="53px" height="56px" viewBox="0 0 53 56" version="1.1" xmlns="http://www.w3.org/2000/svg" xmlns:xlink="http://www.w3.org/1999/xlink">
    <!-- Generator: Sketch 41.2 (35397) - http://www.bohemiancoding.com/sketch -->
    <title>Artboard 2</title>
    <desc>Created with Sketch.</desc>
    <defs></defs>
    <g id="Design" stroke="none" stroke-width="1" fill="none" fill-rule="evenodd">
        <g id="Artboard-2">
            <g id="Page-1" transform="translate(0.000000, 9.000000)">
                <polyline id="Stroke-1" stroke="#299A17" stroke-width="2.2404" stroke-linecap="round" stroke-linejoin="round" points="10.9196864 29.0334667 28.82405 10.8095179 46.4682318 29.807159"></polyline>
                <g id="Group-10" transform="translate(0.000000, 1.203923)">
                    <path d="M28.6567386,1.12607179 C28.2857386,1.12607179 27.9147386,1.26827692 27.6304659,1.55268718 L5.87035227,23.3233282 C5.30301136,23.8909436 5.30301136,24.8080462 5.87035227,25.3756615 L10.222375,28.4788667 C10.5054432,28.7620718 10.8764432,28.9042769 11.2474432,28.9042769 L11.2474432,43.2187897 C11.2474432,44.0202 11.8966932,44.6697641 12.6977159,44.6697641 L44.6145568,44.6697641 C45.4167841,44.6697641 46.0660341,44.0202 46.0660341,43.2187897 L46.0660341,28.9042769 C46.4370341,28.9042769 46.8080341,28.7620718 47.0911023,28.4788667 L51.443125,25.3756615 C52.0104659,24.8080462 52.0104659,23.8909436 51.443125,23.3233282 L46.0660341,17.9424308 L46.0660341,5.4802 C46.0660341,4.67878974 45.4167841,4.02922564 44.6145568,4.02922564 L38.8122614,4.02922564 C38.0100341,4.02922564 37.3607841,4.67878974 37.3607841,5.4802 L37.3607841,9.23417436 L29.6830114,1.55268718 C29.3987386,1.26827692 29.0277386,1.12607179 28.6567386,1.12607179 Z" id="Stroke-2" stroke="#299A17" stroke-width="2.2404"></path>
                    <path d="M26.5328841,21.8486128 C26.5328841,28.8684846 20.8450205,34.5591 13.8285432,34.5591 C6.81206591,34.5591 1.12420227,28.8684846 1.12420227,21.8486128 C1.12420227,14.8299462 6.81206591,9.13933077 13.8285432,9.13933077 C20.8450205,9.13933077 26.5328841,14.8299462 26.5328841,21.8486128" id="Fill-4" fill="#FFFFFF"></path>
                    <path d="M13.8287841,10.264559 C7.44348864,10.264559 2.24948864,15.4610718 2.24948864,21.8482513 C2.24948864,28.2366359 7.44348864,33.4343538 13.8287841,33.4343538 C20.2140795,33.4343538 25.4080795,28.2366359 25.4080795,21.8482513 C25.4080795,15.4610718 20.2140795,10.264559 13.8287841,10.264559 M13.8287841,35.6843282 C6.20280682,35.6843282 0.000602272727,29.4767128 0.000602272727,21.8482513 C0.000602272727,14.2197897 6.20280682,8.01458462 13.8287841,8.01458462 C21.4547614,8.01458462 27.6569659,14.2197897 27.6569659,21.8482513 C27.6569659,29.4767128 21.4547614,35.6843282 13.8287841,35.6843282" id="Fill-6" fill="#299A17"></path>
                    <path d="M13.7910818,30.3316308 L6.81796818,23.3358615 C6.02296818,22.4995026 5.61462727,21.3763231 5.61462727,20.2459128 C5.61462727,19.1142974 6.02296818,17.9923231 6.83362727,17.1427077 C7.64187727,16.2918872 8.68019545,15.8797333 9.72333182,15.8773231 C10.7640591,15.8797333 11.8011727,16.2906821 12.6106273,17.1427077 C12.8105818,17.3499897 12.9828318,17.5753487 13.1334,17.8151692 C13.2827636,18.0549897 13.5453545,18.2008103 13.8272182,18.2008103 C14.1102864,18.2008103 14.3728773,18.0549897 14.52465,17.8163744 C14.6752182,17.5741436 14.8486727,17.3499897 15.0450136,17.1439128 C15.8544682,16.2918872 16.8939909,15.8797333 17.9359227,15.8773231 C18.9790591,15.8797333 20.0161727,16.2906821 20.8244227,17.1427077 C21.6338773,17.9923231 22.0434227,19.1142974 22.0434227,20.2459128 C22.0434227,21.3751179 21.6350818,22.4982974 20.8280364,23.3479128 L13.7910818,30.3316308 Z" id="Fill-8" fill="#99D2A1"></path>
                </g>
            </g>
        </g>
    </g>
</svg>