<?xml version="1.0" encoding="UTF-8" standalone="no"?>
<svg width="53px" height="56px" viewBox="0 0 53 56" version="1.1" xmlns="http://www.w3.org/2000/svg" xmlns:xlink="http://www.w3.org/1999/xlink">
    <!-- Generator: Sketch 41.2 (35397) - http://www.bohemiancoding.com/sketch -->
    <title>Artboard 2</title>
    <desc>Created with Sketch.</desc>
    <defs></defs>
    <g id="Design" stroke="none" stroke-width="1" fill="none" fill-rule="evenodd">
        <g id="Artboard-2">
            <g id="Page-1-Copy" transform="translate(1.000000, 10.000000)">
                <path d="M31.0364,16.9065 C31.0364,21.3385 27.4434,24.9305 23.0124,24.9305 C18.5804,24.9305 14.9884,21.3385 14.9884,16.9065 C14.9884,12.4745 18.5804,8.8825 23.0124,8.8825 C27.4434,8.8825 31.0364,12.4745 31.0364,16.9065" id="Fill-1" fill="#99D2A1"></path>
                <path d="M31.0364,16.9065 C31.0364,21.3385 27.4434,24.9305 23.0124,24.9305 C18.5804,24.9305 14.9884,21.3385 14.9884,16.9065 C14.9884,12.4745 18.5804,8.8825 23.0124,8.8825 C27.4434,8.8825 31.0364,12.4745 31.0364,16.9065 Z" id="Stroke-3" stroke="#99D2A1" stroke-width="2.28"></path>
                <path d="M31.0364,16.9065 C31.0364,21.3385 27.4434,24.9305 23.0124,24.9305 C18.5804,24.9305 14.9884,21.3385 14.9884,16.9065 C14.9884,12.4745 18.5804,8.8825 23.0124,8.8825 C27.4434,8.8825 31.0364,12.4745 31.0364,16.9065 Z" id="Stroke-5" stroke="#299A17" stroke-width="2.28"></path>
                <path d="M36.9392,40.22 C36.9552,39.949 36.9802,39.68 36.9802,39.406 C36.9802,31.691 30.7262,25.437 23.0122,25.437 C15.2972,25.437 9.0432,31.691 9.0432,39.406 C9.0432,39.68 9.0692,39.949 9.0852,40.22" id="Stroke-7" stroke="#299A17" stroke-width="2.28"></path>
                <path d="M45.074,23.012 C45.074,10.827 35.197,0.95 23.012,0.95 C10.827,0.95 0.95,10.827 0.95,23.012 C0.95,35.197 10.827,45.074 23.012,45.074 C35.197,45.074 45.074,35.197 45.074,23.012 Z" id="Stroke-9" stroke="#299A17" stroke-width="2.28"></path>
            </g>
        </g>
    </g>
</svg>