<?xml version="1.0" encoding="UTF-8" standalone="no"?>
<svg viewBox="0 0 316 31" version="1.1" xmlns="http://www.w3.org/2000/svg" xmlns:xlink="http://www.w3.org/1999/xlink">
    <!-- Generator: Sketch 40.1 (33804) - http://www.bohemiancoding.com/sketch -->
    <title>Page 1 Copy</title>
    <desc>Created with Sketch.</desc>
    <defs>
        <polygon id="path-1" points="29.4631138 0.742277512 0.000408293461 0.742277512 0.000408293461 30.2135528 29.4631138 30.2135528 29.4631138 0.742277512"></polygon>
        <polygon id="path-3" points="0 30.2882705 315.075164 30.2882705 315.075164 0.816831898 0 0.816831898"></polygon>
    </defs>
    <g id="Welcome" stroke="none" stroke-width="1" fill="none" fill-rule="evenodd">
        <g id="education-landing-page-copy" transform="translate(-243.000000, -61.000000)">
            <g id="Page-1-Copy" transform="translate(243.000000, 61.000000)">
                <path d="M46.0901257,22.4193939 C42.5910507,22.4193939 40.1053601,19.9426858 40.1053601,15.5878278 C40.1053601,10.9602297 42.8515419,8.58641148 46.192199,8.58641148 C47.8915164,8.58641148 49.1498769,9.05921531 50.1412134,9.71901754 L49.6986233,12.6979266 C48.6248115,11.8437767 47.6048944,11.4550813 46.3783809,11.4550813 C44.5769901,11.4550813 43.2688179,12.8596108 43.2688179,15.5045359 C43.2688179,18.2613333 44.6806967,19.582571 46.5906935,19.582571 C47.6857365,19.582571 48.6762565,19.282067 49.8545914,18.3144115 L50.2743171,21.1242871 C48.9906424,22.063362 47.6857365,22.4193939 46.0901257,22.4193939 L46.0901257,22.4193939 Z" id="Fill-1" fill="#3B3A3C"></path>
                <path d="M57.4075305,11.3161799 C55.5514284,11.3161799 54.5600919,13.0538769 54.5600919,15.5338514 C54.5600919,17.9582979 55.5791923,19.7458067 57.4075305,19.7458067 C59.3403917,19.7458067 60.3366278,18.0130093 60.3366278,15.5338514 C60.3366278,13.0800077 59.2881301,11.3161799 57.4075305,11.3161799 M57.4075305,22.4478928 C53.9843981,22.4478928 51.4987075,19.8568625 51.4987075,15.5338514 C51.4987075,11.2059407 54.0080791,8.58632982 57.4320281,8.58632982 C60.8821078,8.58632982 63.3939292,11.2059407 63.3939292,15.5338514 C63.3939292,19.8568625 60.8535273,22.4478928 57.4075305,22.4478928" id="Fill-3" fill="#3B3A3C"></path>
                <path d="M80.459371,22.173438 L80.459371,13.4645384 C80.459371,12.3066182 80.0633263,11.5071796 78.9201046,11.5071796 C77.9483662,11.5071796 77.0378718,12.1743311 76.1192115,13.1599515 L76.1192115,22.173438 L72.9843343,22.173438 L72.9843343,13.4645384 C72.9843343,12.3066182 72.5662418,11.5071796 71.4132211,11.5071796 C70.4480153,11.5071796 69.5367043,12.1743311 68.6188606,13.1599515 L68.6188606,22.173438 L65.4815337,22.173438 L65.4815337,8.86633748 L68.1485065,8.86633748 L68.4392115,10.7379547 C69.6159132,9.55227049 70.8881557,8.58624817 72.5923726,8.58624817 C74.3953965,8.58624817 75.3622354,9.44856396 75.8358558,10.7379547 C76.9570297,9.55227049 78.3419611,8.58624817 80.0396453,8.58624817 C82.4199962,8.58624817 83.5950648,10.1050998 83.5950648,12.5883407 L83.5950648,22.173438 L80.459371,22.173438 Z" id="Fill-5" fill="#3B3A3C"></path>
                <path d="M101.548708,22.173438 L101.548708,13.4645384 C101.548708,12.3066182 101.157563,11.5071796 100.010258,11.5071796 C99.0393365,11.5071796 98.1247592,12.1743311 97.2093652,13.1599515 L97.2093652,22.173438 L94.0720383,22.173438 L94.0720383,13.4645384 C94.0720383,12.3066182 93.6572121,11.5071796 92.5090909,11.5071796 C91.5406188,11.5071796 90.6268581,12.1743311 89.7090144,13.1599515 L89.7090144,22.173438 L86.5733206,22.173438 L86.5733206,8.86633748 L89.2378437,8.86633748 L89.5277321,10.7379547 C90.7068836,9.55227049 91.9881085,8.58624817 93.6833429,8.58624817 C95.4863668,8.58624817 96.450756,9.44856396 96.9268262,10.7379547 C98.0512663,9.55227049 99.4353812,8.58624817 101.133882,8.58624817 C103.508517,8.58624817 104.685219,10.1050998 104.685219,12.5883407 L104.685219,22.173438 L101.548708,22.173438 Z" id="Fill-7" fill="#3B3A3C"></path>
                <path d="M112.920334,11.3161799 C111.065865,11.3161799 110.074529,13.0538769 110.074529,15.5338514 C110.074529,17.9582979 111.09118,19.7458067 112.920334,19.7458067 C114.849929,19.7458067 115.843715,18.0130093 115.843715,15.5338514 C115.843715,13.0800077 114.800934,11.3161799 112.920334,11.3161799 M112.920334,22.4478928 C109.498019,22.4478928 107.014778,19.8568625 107.014778,15.5338514 C107.014778,11.2059407 109.520066,8.58632982 112.941566,8.58632982 C116.390829,8.58632982 118.90265,11.2059407 118.90265,15.5338514 C118.90265,19.8568625 116.370414,22.4478928 112.920334,22.4478928" id="Fill-9" fill="#3B3A3C"></path>
                <path d="M128.541479,22.173438 L128.541479,13.4645384 C128.541479,12.3066182 128.067042,11.5071796 126.915654,11.5071796 C125.922685,11.5071796 124.959929,12.1743311 124.046168,13.1885321 L124.046168,22.173438 L120.910474,22.173438 L120.910474,8.86633748 L123.570914,8.86633748 L123.85672,10.7379547 C125.035055,9.55227049 126.371807,8.58624817 128.067042,8.58624817 C130.418812,8.58624817 131.673906,10.1050998 131.673906,12.5883407 L131.673906,22.173438 L128.541479,22.173438 Z" id="Fill-11" fill="#3B3A3C"></path>
                <path d="M144.409967,22.4178424 C142.581629,22.4178424 140.696947,21.8119349 139.495747,21.1235522 L139.91384,18.3651215 C141.272641,19.3033799 142.94746,19.9403177 144.513674,19.9403177 C145.870841,19.9403177 146.60577,19.4144357 146.60577,18.5594692 C146.60577,17.6236606 146.059473,17.2398648 144.044137,16.7164325 C140.984385,15.88923 139.706427,14.9526048 139.706427,12.526525 C139.706427,10.2384485 141.426975,8.61915662 144.357706,8.61915662 C146.003945,8.61915662 147.518714,8.94742456 148.771358,9.55251547 L148.350816,12.3093129 C147.103071,11.5605027 145.6079,11.0942316 144.357706,11.0942316 C143.178554,11.0942316 142.606127,11.5605027 142.606127,12.3093129 C142.606127,13.0254596 143.076481,13.4108887 144.952181,13.9343209 C148.227511,14.8170514 149.504653,15.7520434 149.504653,18.2573321 C149.504653,20.8744931 147.726127,22.4178424 144.409967,22.4178424" id="Fill-13" fill="#3B3A3C"></path>
                <path d="M156.532772,10.8763662 C155.277678,10.8763662 154.263477,11.9191477 154.021767,14.0961684 L159.041327,14.0961684 C158.833097,12.0277537 158.054073,10.8763662 156.532772,10.8763662 M162.074947,16.1645831 L153.977671,16.1645831 C154.129557,18.7556134 155.433646,19.8816868 157.369774,19.8816868 C158.992332,19.8816868 160.325818,19.2480153 161.709933,18.230548 L162.074947,20.8191285 C160.71533,21.8120982 159.068274,22.4482195 157.02844,22.4482195 C153.500785,22.4482195 150.868108,20.3193774 150.868108,15.5309116 C150.868108,11.2038175 153.317053,8.58583987 156.612797,8.58583987 C160.403394,8.58583987 162.100262,11.5892466 162.100262,15.3643279 C162.100262,15.6395177 162.074947,15.971052 162.074947,16.1645831" id="Fill-15" fill="#3B3A3C"></path>
                <path d="M172.103696,22.1713965 L172.103696,13.4641301 C172.103696,12.3094762 171.630893,11.5043215 170.483588,11.5043215 C169.489802,11.5043215 168.519696,12.1673901 167.605936,13.1864906 L167.605936,22.1713965 L164.470242,22.1713965 L164.470242,8.86266284 L167.140481,8.86266284 L167.424653,10.7375464 C168.600538,9.55267879 169.936475,8.58583987 171.630893,8.58583987 C173.982663,8.58583987 175.237757,10.1046915 175.237757,12.584666 L175.237757,22.1713965 L172.103696,22.1713965 Z" id="Fill-17" fill="#3B3A3C"></path>
                <path d="M182.137998,22.4178424 C180.310477,22.4178424 178.42906,21.8119349 177.222145,21.1235522 L177.641054,18.3651215 C179.001488,19.3033799 180.674674,19.9403177 182.243338,19.9403177 C183.598056,19.9403177 184.332984,19.4144357 184.332984,18.5594692 C184.332984,17.6236606 183.786687,17.2398648 181.775433,16.7164325 C178.711599,15.88923 177.436907,14.9526048 177.436907,12.526525 C177.436907,10.2384485 179.161539,8.61915662 182.08737,8.61915662 C183.730343,8.61915662 185.247561,8.94742456 186.504288,9.55251547 L186.086196,12.3093129 C184.829469,11.5605027 183.34328,11.0942316 182.08737,11.0942316 C180.910668,11.0942316 180.339057,11.5605027 180.339057,12.3093129 C180.339057,13.0254596 180.808595,13.4108887 182.689194,13.9343209 C185.953909,14.8170514 187.231867,15.7520434 187.231867,18.2573321 C187.231867,20.8744931 185.459057,22.4178424 182.137998,22.4178424" id="Fill-19" fill="#3B3A3C"></path>
                <path d="M194.267989,10.8763662 C193.014528,10.8763662 191.993794,11.9191477 191.754534,14.0961684 L196.776544,14.0961684 C196.567497,12.0277537 195.781941,10.8763662 194.267989,10.8763662 M199.801998,16.1645831 L191.704722,16.1645831 C191.864773,18.7556134 193.168863,19.8816868 195.101724,19.8816868 C196.719382,19.8816868 198.052869,19.2480153 199.441883,18.230548 L199.801998,20.8191285 C198.444831,21.8120982 196.802674,22.4482195 194.761207,22.4482195 C191.236001,22.4482195 188.591893,20.3193774 188.591893,15.5309116 C188.591893,11.2038175 191.051453,8.58583987 194.348014,8.58583987 C198.130445,8.58583987 199.832212,11.5892466 199.832212,15.3643279 C199.832212,15.6395177 199.801998,15.971052 199.801998,16.1645831" id="Fill-21" fill="#3B3A3C"></path>
                <g id="Group-25" transform="translate(0.000000, 0.074554)">
                    <mask id="mask-2" fill="white">
                        <use xlink:href="#path-1"></use>
                    </mask>
                    <g id="Clip-24"></g>
                    <path d="M26.081378,16.1511094 C25.9245933,18.8360472 24.8246507,21.4728064 22.7782839,23.5191732 C20.6298437,25.6676134 17.7750558,26.8516644 14.7373525,26.8516644 C11.6988325,26.8516644 8.84404466,25.6676134 6.69560447,23.5191732 C4.54716427,21.3723662 3.36392982,18.5159451 3.36392982,15.4774252 C3.36392982,12.4405384 4.54716427,9.58411738 6.69560447,7.43649378 C8.84241148,5.28805359 11.6988325,4.10563573 14.7365359,4.10563573 C17.7750558,4.10563573 20.6298437,5.28805359 22.7774673,7.43649378 C23.1571802,7.81539011 23.5009633,8.2155177 23.8169825,8.63197703 L25.9940032,5.97317002 C25.7277959,5.66041722 25.4526061,5.35256396 25.156185,5.05777608 C22.3732568,2.27484785 18.6733014,0.742114195 14.7365359,0.742114195 C10.8005869,0.742114195 7.10063158,2.27484785 4.31688676,5.05777608 C1.53395853,7.84152089 0.000408293461,11.5422928 0.000408293461,15.4774252 C0.000408293461,19.4141907 1.53395853,23.1149627 4.31688676,25.8978909 C7.09899841,28.6808191 10.8005869,30.2135528 14.7373525,30.2135528 C18.6733014,30.2135528 22.3732568,28.6808191 25.156185,25.8978909 C28.7834641,22.2730616 30.116134,17.2151222 29.16726,12.5311796 L26.081378,16.1511094 Z" id="Fill-23" fill="#33A544" mask="url(#mask-2)"></path>
                </g>
                <path d="M16.155519,22.1307305 L16.1359209,22.1307305 C13.6575796,22.1307305 12.0562526,20.3832344 11.7949448,20.1006954 L7.80510112,15.8568931 C7.20899266,15.2338373 7.23349027,14.21637 7.85654609,13.6210781 C8.48205167,13.0266029 9.46930526,13.0355853 10.0654137,13.6602743 L14.1001697,17.8885614 C14.1001697,17.8869282 14.981267,18.7990558 16.1743005,18.7843573 C17.1288906,18.7786411 18.1390086,18.2004976 19.1703579,17.0695247 L30.6744344,3.13528549 C31.2215477,2.47058373 32.2088013,2.37667624 32.8726864,2.92460606 C33.5373882,3.47416906 33.6312957,4.4581563 33.0825493,5.12367464 L21.5090628,19.2555279 C19.8432255,21.0887656 18.0434679,22.1307305 16.155519,22.1307305" id="Fill-26" fill="#3B3A3C"></path>
                <path d="M212.520748,11.0398469 C210.269418,11.0398469 209.004524,12.7840766 208.726068,15.2632344 L215.808327,15.2632344 C215.734017,12.9359617 214.594878,11.0398469 212.520748,11.0398469 L212.520748,11.0398469 Z M217.074853,16.2496715 L208.674623,16.2496715 C208.674623,19.2865582 210.091402,21.4113174 212.747759,21.4113174 C214.189851,21.4113174 215.707886,20.6518915 216.871523,19.5886954 L217.049539,20.7033365 C215.960212,21.6889569 214.392365,22.4483828 212.697947,22.4483828 C209.561437,22.4483828 207.461175,20.1227432 207.461175,16.2496715 C207.461175,12.454992 209.637379,10.0534099 212.520748,10.0534099 C215.556818,10.0534099 217.074853,12.7089506 217.074853,15.9965295 L217.074853,16.2496715 Z" id="Fill-28" fill="#3B3A3C"></path>
                <path d="M228.40516,11.9242105 C227.469351,11.444874 226.432286,11.1647847 225.244152,11.1647847 C222.890748,11.1647847 220.993817,12.8608357 220.993817,16.5281276 C220.993817,19.6401404 222.53635,21.3615056 224.661925,21.3615056 C226.104018,21.3615056 227.24234,20.5000064 228.40516,19.1844848 L228.40516,11.9242105 Z M228.735061,22.1960574 L228.431291,20.4501946 C227.494665,21.5378884 226.356343,22.4483828 224.636611,22.4483828 C222.006385,22.4483828 219.754238,20.5767656 219.754238,16.5795726 C219.754238,12.2532951 222.334653,10.1277193 225.218838,10.1277193 C226.432286,10.1277193 227.469351,10.3563636 228.40516,10.7605742 L228.40516,4.71374801 L229.594927,4.71374801 L229.594927,22.1960574 L228.735061,22.1960574 Z" id="Fill-30" fill="#3B3A3C"></path>
                <path d="M241.886765,22.1957308 L241.583811,20.3992396 C240.141719,21.6633161 238.826197,22.4480561 237.25835,22.4480561 C234.80369,22.4480561 233.639237,21.0574086 233.639237,18.6786909 L233.639237,10.3054086 L234.829821,10.3054086 L234.829821,18.5782507 C234.829821,20.3739254 235.68887,21.3611789 237.384105,21.3611789 C238.700443,21.3611789 240.065776,20.6017531 241.55768,19.210289 L241.55768,10.3054086 L242.746631,10.3054086 L242.746631,22.1957308 L241.886765,22.1957308 Z" id="Fill-32" fill="#3B3A3C"></path>
                <path d="M251.397144,22.4481378 C248.487645,22.4481378 246.159556,20.1706769 246.159556,16.2494265 C246.159556,12.3044951 248.513776,10.0531649 251.47227,10.0531649 C252.964991,10.0531649 254.280513,10.5831298 255.318395,11.3670533 L255.089751,12.581318 C253.901617,11.5695668 252.787792,11.0894137 251.421642,11.0894137 C248.892672,11.0894137 247.399952,13.1888587 247.399952,16.2494265 C247.399952,19.2348683 248.842044,21.4110724 251.522899,21.4110724 C252.813106,21.4110724 254.002057,20.9570501 255.242452,19.8938539 L255.394337,21.0060453 C254.305827,21.9173563 252.990306,22.4481378 251.397144,22.4481378" id="Fill-34" fill="#3B3A3C"></path>
                <path d="M265.636379,15.6682616 C260.730325,16.1990431 259.110216,17.2361085 259.110216,19.1844848 C259.110216,20.7025199 260.199543,21.4113174 261.540379,21.4113174 C262.803639,21.4113174 264.347805,20.6518915 265.636379,19.5135694 L265.636379,15.6682616 Z M265.96628,22.1960574 L265.689457,20.6020797 C264.449878,21.6889569 262.980838,22.4483828 261.489751,22.4483828 C259.489929,22.4483828 257.898401,21.4349984 257.898401,19.2865582 C257.898401,16.630201 259.92027,15.2126061 265.636379,14.681008 L265.636379,13.6439426 C265.636379,11.9748389 264.650759,11.1647847 263.007786,11.1647847 C261.640003,11.1647847 260.250172,11.5453142 258.93465,12.2279809 L258.781948,11.1149729 C260.124417,10.5074322 261.489751,10.0770909 263.059231,10.0770909 C265.48531,10.0770909 266.800832,11.3166699 266.800832,13.5941308 L266.800832,22.1960574 L265.96628,22.1960574 Z" id="Fill-36" fill="#3B3A3C"></path>
                <path d="M274.212175,22.3971011 C272.51694,22.3971011 271.403932,21.6891203 271.403932,19.6909321 L271.403932,11.3168332 L269.558446,11.3168332 L269.558446,10.305082 L271.403932,10.305082 L271.403932,6.66800383 L272.569202,6.66800383 L272.5937,10.305082 L275.500749,10.305082 L275.654267,11.3168332 L272.5937,11.3168332 L272.5937,19.4876019 C272.5937,20.8806992 273.148162,21.3608523 274.4645,21.3608523 C274.843396,21.3608523 275.374995,21.2587789 275.654267,21.1828364 L275.83065,22.1447758 C275.527696,22.2713467 274.869527,22.3971011 274.212175,22.3971011" id="Fill-38" fill="#3B3A3C"></path>
                <mask id="mask-4" fill="white">
                    <use xlink:href="#path-3"></use>
                </mask>
                <g id="Clip-41"></g>
                <path d="M279.220466,22.1950775 L280.383285,22.1950775 L280.383285,10.3047553 L279.220466,10.3047553 L279.220466,22.1950775 Z M279.800242,7.09230239 C279.244147,7.09230239 278.763994,6.5860185 278.763994,6.055237 C278.763994,5.49832472 279.244147,5.04348581 279.800242,5.04348581 C280.357155,5.04348581 280.813627,5.49832472 280.813627,6.055237 C280.813627,6.5860185 280.357155,7.09230239 279.800242,7.09230239 L279.800242,7.09230239 Z" id="Fill-40" fill="#3B3A3C" mask="url(#mask-4)"></path>
                <path d="M289.185031,11.0896587 C286.606249,11.0896587 285.187838,13.1882871 285.187838,16.2496715 C285.187838,19.2351132 286.631564,21.4113174 289.185031,21.4113174 C291.765446,21.4113174 293.209171,19.33637 293.209171,16.2496715 C293.209171,13.2650463 291.765446,11.0896587 289.185031,11.0896587 M289.185031,22.4483828 C286.226537,22.4483828 283.949076,20.1709219 283.949076,16.2496715 C283.949076,12.30474 286.301663,10.0534099 289.185031,10.0534099 C292.170473,10.0534099 294.4463,12.30474 294.4463,16.2496715 C294.4463,20.1709219 292.095347,22.4483828 289.185031,22.4483828" id="Fill-42" fill="#3B3A3C" mask="url(#mask-4)"></path>
                <path d="M305.779955,22.1957308 L305.779955,13.9220721 C305.779955,12.1263974 304.918456,11.1391439 303.223222,11.1391439 C301.9077,11.1391439 300.542367,11.9002029 299.049646,13.2908504 L299.049646,22.1957308 L297.861512,22.1957308 L297.861512,10.3054086 L298.720561,10.3054086 L299.024332,12.1018998 C300.467241,10.8370067 301.781129,10.0530833 303.348976,10.0530833 C305.80527,10.0530833 306.968089,11.4445474 306.968089,13.8216319 L306.968089,22.1957308 L305.779955,22.1957308 Z" id="Fill-43" fill="#3B3A3C" mask="url(#mask-4)"></path>
                <path d="M314.679446,13.0007987 L314.510413,10.7682501 L313.610534,13.008148 L313.290432,13.008148 L312.397086,10.7682501 L312.219886,13.0007987 L311.840174,13.0007987 L312.060652,10.0937493 L312.532639,10.0937493 L313.457832,12.4781831 L314.384658,10.0937493 L314.84848,10.0937493 L315.074674,13.0007987 L314.679446,13.0007987 Z M310.51077,10.4563139 L310.51077,13.0007987 L310.114725,13.0007987 L310.114725,10.4563139 L309.196065,10.4563139 L309.196065,10.0937493 L311.369819,10.0937493 L311.42943,10.4563139 L310.51077,10.4563139 Z" id="Fill-44" fill="#3B3A3C" mask="url(#mask-4)"></path>
            </g>
        </g>
    </g>
</svg>