<?xml version="1.0" encoding="UTF-8" standalone="no"?>
<svg width="53px" height="56px" viewBox="0 0 53 56" version="1.1" xmlns="http://www.w3.org/2000/svg" xmlns:xlink="http://www.w3.org/1999/xlink">
    <!-- Generator: Sketch 41.2 (35397) - http://www.bohemiancoding.com/sketch -->
    <title>Group 3</title>
    <desc>Created with Sketch.</desc>
    <defs></defs>
    <g id="Design" stroke="none" stroke-width="1" fill="none" fill-rule="evenodd">
        <g id="Desktop:-FAQ" transform="translate(-585.000000, -1229.000000)">
            <g id="Group-3" transform="translate(585.000000, 1229.000000)">
                <path d="M48.5170818,15.6080484 L42.3421805,15.6080484 L42.3421805,5.20268282 C42.3421805,2.34120727 39.9604328,0 37.0494079,0 L15.8783177,0 C12.9672928,0 10.5855451,2.34120727 10.5855451,5.20268282 L10.5855451,20.8107313 L4.4106438,20.8107313 C1.94068327,20.8107313 0,22.7183816 0,25.1463003 L0,28.6147555 C0,31.0426741 1.94068327,32.9503245 4.4106438,32.9503245 L4.4106438,38.1530073 C4.4106438,38.4998528 4.58706955,38.8466984 4.93992106,38.9334097 C5.02813393,39.0201211 5.20455969,39.0201211 5.29277256,39.0201211 C5.55741119,39.0201211 5.73383694,38.9334097 5.91026269,38.759987 L10.5855451,34.1642838 L10.5855451,50.2926006 C10.5855451,53.1540761 12.9672928,55.4952834 15.8783177,55.4952834 L37.0494079,55.4952834 C39.9604328,55.4952834 42.3421805,53.1540761 42.3421805,50.2926006 L42.3421805,37.632739 L47.0174629,42.2284422 C47.1938887,42.401865 47.3703144,42.4885763 47.6349531,42.4885763 C47.7231659,42.4885763 47.8995917,42.4885763 47.9878046,42.401865 C48.3406561,42.2284422 48.5170818,41.9683081 48.5170818,41.6214625 L48.5170818,36.4187797 C50.9870423,36.4187797 52.9277256,34.5111293 52.9277256,32.0832107 L52.9277256,19.9436175 C52.9277256,17.5156988 50.9870423,15.6080484 48.5170818,15.6080484 Z M11.4676739,31.2160969 C11.379461,31.2160969 11.2030353,31.2160969 11.1148224,31.3028083 C11.0266095,31.3895197 10.9383966,31.3895197 10.8501838,31.476231 L6.17490132,36.0719342 L6.17490132,32.0832107 C6.17490132,31.5629424 5.82204982,31.2160969 5.29277256,31.2160969 L4.4106438,31.2160969 C2.91102491,31.2160969 1.76425752,30.088849 1.76425752,28.6147555 L1.76425752,25.1463003 C1.76425752,23.6722068 2.91102491,22.5449589 4.4106438,22.5449589 L15.8783177,22.5449589 C17.3779366,22.5449589 18.524704,23.6722068 18.524704,25.1463003 L18.524704,28.6147555 C18.524704,30.088849 17.3779366,31.2160969 15.8783177,31.2160969 L11.4676739,31.2160969 Z M40.577923,46.8241453 L12.3498026,46.8241453 L12.3498026,32.9503245 L15.8783177,32.9503245 C18.3482782,32.9503245 20.2889615,31.0426741 20.2889615,28.6147555 L20.2889615,25.1463003 C20.2889615,22.7183816 18.3482782,20.8107313 15.8783177,20.8107313 L12.3498026,20.8107313 L12.3498026,8.67113803 L40.577923,8.67113803 L40.577923,15.6080484 L27.3459916,15.6080484 C24.876031,15.6080484 22.9353478,17.5156988 22.9353478,19.9436175 L22.9353478,32.0832107 C22.9353478,34.5111293 24.876031,36.4187797 27.3459916,36.4187797 L40.577923,36.4187797 L40.577923,46.8241453 Z M51.1634681,32.0832107 C51.1634681,33.5573042 50.0167007,34.6845521 48.5170818,34.6845521 L47.6349531,34.6845521 C47.1056758,34.6845521 46.7528243,35.0313976 46.7528243,35.5516659 L46.7528243,39.5403894 L42.0775419,34.9446862 C41.989329,34.8579749 41.9011161,34.7712635 41.8129032,34.7712635 C41.7246904,34.6845521 41.5482646,34.6845521 41.4600517,34.6845521 L27.3459916,34.6845521 C25.8463727,34.6845521 24.6996053,33.5573042 24.6996053,32.0832107 L24.6996053,19.9436175 C24.6996053,18.469524 25.8463727,17.3422761 27.3459916,17.3422761 L48.5170818,17.3422761 C50.0167007,17.3422761 51.1634681,18.469524 51.1634681,19.9436175 L51.1634681,32.0832107 Z" id="Shape" fill="#299A17"></path>
                <path d="M46.7528243,19.9436175 L29.1102491,19.9436175 C28.5809718,19.9436175 28.2281203,20.290463 28.2281203,20.8107313 C28.2281203,21.3309995 28.5809718,21.6778451 29.1102491,21.6778451 L46.7528243,21.6778451 C47.2821016,21.6778451 47.6349531,21.3309995 47.6349531,20.8107313 C47.6349531,20.290463 47.2821016,19.9436175 46.7528243,19.9436175 Z" id="Shape" fill="#299A17"></path>
                <path d="M46.7528243,23.4120727 L39.6957942,23.4120727 C39.166517,23.4120727 38.8136655,23.7589182 38.8136655,24.2791865 C38.8136655,24.7994548 39.166517,25.1463003 39.6957942,25.1463003 L46.7528243,25.1463003 C47.2821016,25.1463003 47.6349531,24.7994548 47.6349531,24.2791865 C47.6349531,23.7589182 47.2821016,23.4120727 46.7528243,23.4120727 Z" id="Shape" fill="#299A17"></path>
                <path d="M46.7528243,26.8805279 L31.7566354,26.8805279 C31.2273581,26.8805279 30.8745066,27.2273734 30.8745066,27.7476417 C30.8745066,28.26791 31.2273581,28.6147555 31.7566354,28.6147555 L46.7528243,28.6147555 C47.2821016,28.6147555 47.6349531,28.26791 47.6349531,27.7476417 C47.6349531,27.2273734 47.2821016,26.8805279 46.7528243,26.8805279 Z" id="Shape" fill="#299A17"></path>
                <path d="M46.7528243,30.3489831 L35.2851504,30.3489831 C34.7558732,30.3489831 34.4030217,30.6958286 34.4030217,31.2160969 C34.4030217,31.7363652 34.7558732,32.0832107 35.2851504,32.0832107 L46.7528243,32.0832107 C47.2821016,32.0832107 47.6349531,31.7363652 47.6349531,31.2160969 C47.6349531,30.6958286 47.2821016,30.3489831 46.7528243,30.3489831 Z" id="Shape" fill="#299A17"></path>
                <path d="M7.05703008,26.0134141 L6.17490132,26.0134141 C5.64562407,26.0134141 5.29277256,26.3602596 5.29277256,26.8805279 C5.29277256,27.4007962 5.64562407,27.7476417 6.17490132,27.7476417 L7.05703008,27.7476417 C7.58630734,27.7476417 7.93915884,27.4007962 7.93915884,26.8805279 C7.93915884,26.3602596 7.58630734,26.0134141 7.05703008,26.0134141 Z" id="Shape" fill="#299A17"></path>
                <path d="M10.5855451,26.0134141 L9.70341636,26.0134141 C9.17413911,26.0134141 8.8212876,26.3602596 8.8212876,26.8805279 C8.8212876,27.4007962 9.17413911,27.7476417 9.70341636,27.7476417 L10.5855451,27.7476417 C11.1148224,27.7476417 11.4676739,27.4007962 11.4676739,26.8805279 C11.4676739,26.3602596 11.1148224,26.0134141 10.5855451,26.0134141 Z" id="Shape" fill="#299A17"></path>
                <path d="M14.1140602,26.0134141 L13.2319314,26.0134141 C12.7026541,26.0134141 12.3498026,26.3602596 12.3498026,26.8805279 C12.3498026,27.4007962 12.7026541,27.7476417 13.2319314,27.7476417 L14.1140602,27.7476417 C14.6433374,27.7476417 14.9961889,27.4007962 14.9961889,26.8805279 C14.9961889,26.3602596 14.6433374,26.0134141 14.1140602,26.0134141 Z" id="Shape" fill="#299A17"></path>
                <path d="M40.577923,50.2926006 C40.577923,52.2002509 38.9900912,53.7610558 37.0494079,53.7610558 L15.8783177,53.7610558 C13.9376344,53.7610558 12.3498026,52.2002509 12.3498026,50.2926006 L12.3498026,48.558373 L40.577923,48.558373 L40.577923,50.2926006 Z" id="Path" fill="#99D2A1"></path>
                <path d="M12.3498026,5.20268282 C12.3498026,3.29503245 13.9376344,1.73422761 15.8783177,1.73422761 L37.0494079,1.73422761 C38.9900912,1.73422761 40.577923,3.29503245 40.577923,5.20268282 L40.577923,6.93691042 L12.3498026,6.93691042 L12.3498026,5.20268282 Z" id="Path" fill="#99D2A1"></path>
                <path d="M22.9353478,52.0268282 L29.9923779,52.0268282 C30.5216551,52.0268282 30.8745066,51.6799826 30.8745066,51.1597144 C30.8745066,50.6394461 30.5216551,50.2926006 29.9923779,50.2926006 L22.9353478,50.2926006 C22.4060705,50.2926006 22.053219,50.6394461 22.053219,51.1597144 C22.053219,51.6799826 22.4060705,52.0268282 22.9353478,52.0268282 Z" id="Shape" fill="#299A17"></path>
            </g>
        </g>
    </g>
</svg>