<svg id="Layer_1" xmlns="http://www.w3.org/2000/svg" viewBox="0 0 21 21"><style>.st0{fill:#231f20}</style><g id="Visual_V4"><g id="Desktop-_x28_970-and-above_x29_" transform="translate(-1137 -522)"><g id="facebook" transform="translate(1138 523)"><path class="st0" d="M12.1 9.9c.1-.6.1-1.2.2-1.9h-1.7v-.9c0-.7.1-.8.8-.8h.9V4.5h-2c-1.2.1-1.8.7-1.9 1.8v1.6H7.2v1.9h1.1v5.4h2.3V9.9h1.5z" id="Fill-1-path"/></g></g></g><g id="Visual_V4_1_"><g id="Desktop-_x28_970-and-above_x29__1_" transform="translate(-1137 -670)"><g id="linkedin" transform="translate(1138 671.218)"><g id="Pinterest--Copy"><path class="st0" d="M9.5 19.8C3.7 19.8-1 15.1-1 9.3S3.7-1.2 9.5-1.2 20 3.5 20 9.3 15.3 19.8 9.5 19.8zm0-20C4.3-.2 0 4.1 0 9.3s4.3 9.5 9.5 9.5S19 14.5 19 9.3 14.7-.2 9.5-.2z" id="Shape"/></g></g></g></g></svg>