<svg id="Layer_1" xmlns="http://www.w3.org/2000/svg" viewBox="0 0 21 21"><style>.st0{fill:#231f20}</style><g id="Visual_V4"><g id="Tablet-_x28_768-and-below_x29_" transform="translate(-538 -875)"><g id="Google-_x2B_" transform="translate(539 876)"><path class="st0" d="M4.4 8.5C2 8.5.1 6.6.1 4.3.1 1.9 2.1 0 4.4 0c1 0 2 .4 2.8 1l-1 1.3c-.5-.4-1.1-.6-1.8-.6-1.4 0-2.6 1.1-2.6 2.5S3 6.8 4.4 6.8c1.2 0 2-.6 2.3-1.6H4.4V3.6h4v.8c.1 2.4-1.5 4.1-4 4.1zM13 3.6h-1.3V2.3h-1v1.3H9.5v1h1.2v1.2h1V4.6H13z" transform="translate(4 5.5)" id="Shape"/></g></g></g><g id="Visual_V4_1_"><g id="Desktop-_x28_970-and-above_x29_" transform="translate(-1137 -670)"><g id="linkedin" transform="translate(1138 671.218)"><g id="Pinterest--Copy"><path class="st0" d="M9.5 19.8C3.7 19.8-1 15.1-1 9.3S3.7-1.2 9.5-1.2 20 3.5 20 9.3 15.3 19.8 9.5 19.8zm0-20C4.3-.2 0 4.1 0 9.3s4.3 9.5 9.5 9.5S19 14.5 19 9.3 14.7-.2 9.5-.2z" id="Shape_1_"/></g></g></g></g></svg>