<svg id="Layer_1" xmlns="http://www.w3.org/2000/svg" viewBox="0 0 22 22"><style>.st0{fill:#231f20}</style><g id="Visual_V4"><g id="Desktop-_x28_970-and-above_x29_" transform="translate(-1137 -670)"><g id="linkedin" transform="translate(1138 671.218)"><g id="Pinterest--Copy"><path class="st0" d="M10 20.5C4.2 20.5-.5 15.8-.5 10S4.2-.5 10-.5 20.5 4.2 20.5 10 15.8 20.5 10 20.5zm0-20C4.8.5.5 4.8.5 10s4.3 9.5 9.5 9.5 9.5-4.3 9.5-9.5S15.2.5 10 .5z" id="Shape"/></g><g id="Group-2" transform="translate(5 4)"><path class="st0" d="M9.9 9.7V6.1c0-2-1-2.9-2.4-2.9-.8 0-1.5.4-1.9 1v-.9H3.5v6.4h2.1V6.2c0-.2 0-.3.1-.5.2-.5.6-.8 1.1-.8.8 0 1.1.6 1.1 1.4v3.4h2z" id="Path"/><path class="st0" d="M1.2 2.5c.4 0 .8-.2 1-.5s.2-.8 0-1.2-.6-.6-1-.5C.8.3.4.5.2.8s-.2.8 0 1.1.6.6 1 .6z" id="Path_1_"/><path class="st0" d="M2.3 9.7V3.3H.2v6.4h2.1z" id="Path_2_"/></g></g></g></g></svg>