<svg id="Layer_1" xmlns="http://www.w3.org/2000/svg" viewBox="0 0 22 22"><style>.st0{fill:#231f20}</style><path class="st0" d="M11 .9C5.2.9.5 5.6.5 11.4S5.2 21.9 11 21.9s10.5-4.7 10.5-10.5S16.8.9 11 .9zm3.4 12.6c-.7.5-1.6.7-2.5.5-.5-.1-.9-.4-1.2-.7-.2.6-.3 1.1-.5 1.7-.2.9-.7 1.6-1.2 2.3l-.1.1-.1-.1c-.2-1-.1-2.1.2-3.1s.5-2 .7-3v-.3c-.2-.6-.2-1.3 0-1.9.2-.4.5-.7 1-.8.6-.1 1.1.3 1.1.9 0 .4-.1.7-.2 1.1-.1.5-.3 1-.4 1.4-.2.7.3 1.3 1 1.4.6 0 1.1-.2 1.4-.7.5-.6.7-1.2.8-1.9.1-.5.1-1.1 0-1.6-.1-.7-.6-1.3-1.4-1.7-.8-.4-2.5-.6-3.6.2-1 .7-1.5 2.1-1.2 3.2.1.3.2.5.4.8.1.1.1.3.1.4 0 .1 0 .2-.1.4-.1.3-.3.3-.5.2-.5-.2-.9-.6-1.1-1.1-.4-1-.4-2 0-2.9.5-1.2 1.4-2 2.7-2.5 1.5-.5 3-.5 4.5.2 1.1.6 1.7 1.4 2 2.8.2 1.8-.2 3.5-1.8 4.7z"/></svg>