<svg id="Layer_1" xmlns="http://www.w3.org/2000/svg" viewBox="0 0 20 21"><style>.st0{fill:#231f20}</style><path class="st0" d="M10 .6C4.5.6.1 5 .1 10.5s4.4 9.9 9.9 9.9 9.9-4.4 9.9-9.9S15.5.6 10 .6zm4.7 7c0 .1-.4.6-.7.8-.1.1-.2.2-.2.5-.2 2.3-.7 4.1-2.8 5.1-1.8.9-4.1.7-5.8-.2v-.1h.5c1.9-.2 2.3-.8 2.3-.8s-.2 0-.4-.1c-1-.4-1.3-1-1.3-1.3.3 0 .5 0 .7-.1-.4-.2-.7-.4-1-.8-.2-.3-.3-.7-.4-1.2.3.1.5.1.7.1h.1c-.8-.7-1-2.1-.5-2.7C7 8.1 8.2 8.9 10 9v-.4c0-1.4 1.3-2.4 2.6-2 .3.1.5.3.8.5.2.2 1-.2 1.5-.4-.1.4-.3.7-.7 1 .3 0 .5-.1.5-.1z"/></svg>