<svg id="Layer_1" xmlns="http://www.w3.org/2000/svg" viewBox="0 0 21 21"><style>.st0{fill:#231f20}</style><g id="instagram-copy"><path class="st0" d="M10.7 20.5C5.1 20.5.5 16 .5 10.3.5 4.7 5.1.1 10.7.1s10.2 4.6 10.2 10.2c0 5.7-4.6 10.2-10.2 10.2zm0-19.3c-5.1 0-9.2 4.1-9.2 9.2s4.1 9.2 9.2 9.2 9.2-4.1 9.2-9.2-4.2-9.2-9.2-9.2z" id="Oval"/></g><path class="st0" d="M14.6 6.7H7c-.9 0-1.6.7-1.6 1.6v4.3c0 .9.7 1.6 1.6 1.6h7.6c.9 0 1.6-.7 1.6-1.6V8.3c0-.9-.7-1.6-1.6-1.6zm-3.3 4.6l-1.6.8V8.7l1.6.8 1.6.9-1.6.9z"/></svg>