<svg xmlns="http://www.w3.org/2000/svg" viewBox="0 0 76.25 57.22"><title>notFound</title><g id="Layer_2" data-name="Layer 2"><g id="Layer_1-2" data-name="Layer 1"><path d="M73.25,57.22H3a3,3,0,0,1-3-3V3A3,3,0,0,1,3,0H73.25a3,3,0,0,1,3,3V54.22A3,3,0,0,1,73.25,57.22ZM3,2A1,1,0,0,0,2,3V54.22a1,1,0,0,0,1,1H73.25a1,1,0,0,0,1-1V3a1,1,0,0,0-1-1Z"/><rect x="0.42" y="12.91" width="74.25" height="2"/><circle cx="7.76" cy="7.09" r="1.5"/><circle cx="15.01" cy="7.09" r="1.5"/><circle cx="22.01" cy="7.09" r="1.5"/><path d="M35.52,41.79a9.9,9.9,0,1,1,9.89-9.89A9.91,9.91,0,0,1,35.52,41.79Zm0-17.79a7.9,7.9,0,1,0,7.89,7.9A7.9,7.9,0,0,0,35.52,24Z"/><path d="M47,45.65A1.5,1.5,0,0,1,46,45.21L40.74,40a1.5,1.5,0,0,1,2.12-2.12l5.22,5.22A1.5,1.5,0,0,1,47,45.65Z"/></g></g></svg>