<svg xmlns="http://www.w3.org/2000/svg" viewBox="0 0 26.02 30"><defs><style>.cls-1{fill:#fff;}</style></defs><title>privacy_Caution_White</title><g id="Layer_2" data-name="Layer 2"><g id="Layer_1-2" data-name="Layer 1"><path class="cls-1" d="M13,0,0,2.43l.46,14a11.56,11.56,0,0,0,3.45,7.91,30.4,30.4,0,0,0,8.77,5.57A.86.86,0,0,0,13,30h0a.86.86,0,0,0,.33-.07,30.4,30.4,0,0,0,8.77-5.57,11.56,11.56,0,0,0,3.45-7.91l.46-14ZM11.89,6.84h2.29v4.52a11.93,11.93,0,0,1-.09,1.44q-.09.71-.23,1.46H12.21q-.14-.74-.23-1.46a11.93,11.93,0,0,1-.09-1.44Zm2.4,10.8a1.28,1.28,0,0,1-.3.43,1.4,1.4,0,0,1-.44.29,1.45,1.45,0,0,1-.55.1,1.47,1.47,0,0,1-.55-.1,1.35,1.35,0,0,1-.44-.29,1.3,1.3,0,0,1-.29-.43,1.34,1.34,0,0,1-.11-.53,1.32,1.32,0,0,1,.11-.53,1.34,1.34,0,0,1,.73-.71,1.4,1.4,0,0,1,.55-.11,1.39,1.39,0,0,1,.55.11,1.41,1.41,0,0,1,.44.29,1.3,1.3,0,0,1,.4,1A1.34,1.34,0,0,1,14.29,17.64Z"/></g></g></svg>