<svg xmlns="http://www.w3.org/2000/svg" viewBox="0 0 26.02 30"><defs><style>.cls-1{fill:#f25555;}</style></defs><title>privacy_NotRec_Red</title><g id="Layer_2" data-name="Layer 2"><g id="Layer_1-2" data-name="Layer 1"><path class="cls-1" d="M10,17.07a5.28,5.28,0,0,0,7.34-7.34Z"/><path class="cls-1" d="M16,8.34a5.28,5.28,0,0,0-7.34,7.34Z"/><path class="cls-1" d="M13,0,0,2.43l.46,14a11.56,11.56,0,0,0,3.45,7.91,30.4,30.4,0,0,0,8.77,5.57A.87.87,0,0,0,13,30h0a.87.87,0,0,0,.33-.07,30.4,30.4,0,0,0,8.77-5.57,11.56,11.56,0,0,0,3.45-7.91l.46-14Zm0,20a7.26,7.26,0,1,1,7.26-7.26A7.27,7.27,0,0,1,13,20Z"/></g></g></svg>