<?xml version="1.0" encoding="utf-8"?>
<!-- Generator: Adobe Illustrator 19.2.1, SVG Export Plug-In . SVG Version: 6.00 Build 0)  -->
<svg version="1.1" id="Layer_1" xmlns="http://www.w3.org/2000/svg" xmlns:xlink="http://www.w3.org/1999/xlink" x="0px" y="0px"
	 viewBox="0 0 14.1 14.2" style="enable-background:new 0 0 14.1 14.2;" xml:space="preserve">
<style type="text/css">
	.st0{fill:#231F20;}
</style>
<g id="Page-1" transform="translate(345.000000, 8.000000)">
	<path id="Fill-1" class="st0" d="M-339.3-6.1c-2.1,0-3.9,1.7-3.9,3.9s1.7,3.9,3.8,3.9c2.1,0,3.9-1.7,3.9-3.9
		C-335.4-4.3-337.2-6.1-339.3-6.1 M-336,2.6c-2.7,1.8-6,1.1-7.8-1.2c-1.7-2.2-1.5-5.5,0.4-7.5c2-2.1,5.1-2.4,7.5-0.7
		s3.2,5.1,1.5,7.8c0,0,0.1,0,0.1,0.1c1,1,2.1,2.1,3.1,3.1c0.6,0.6,0.4,1.7-0.5,1.9c-0.4,0.1-0.8,0-1.1-0.3c-1-1-2-2.1-3-3.1
		C-336,2.7-336,2.6-336,2.6"/>
</g>
</svg>
