<?xml version="1.0" encoding="UTF-8" standalone="no"?>
<svg width="53px" height="56px" viewBox="0 0 53 56" version="1.1" xmlns="http://www.w3.org/2000/svg" xmlns:xlink="http://www.w3.org/1999/xlink">
    <!-- Generator: Sketch 41.2 (35397) - http://www.bohemiancoding.com/sketch -->
    <title>Artboard 2</title>
    <desc>Created with Sketch.</desc>
    <defs>
        <polygon id="path-1" points="0 51.6183312 51.9807692 51.6183312 51.9807692 0 0 0"></polygon>
    </defs>
    <g id="Design" stroke="none" stroke-width="1" fill="none" fill-rule="evenodd">
        <g id="Artboard-2">
            <g id="educators" transform="translate(0.000000, 3.000000)">
                <path d="M3.51747368,0.597930136 L3.51747368,36.7926885 L0.000649759615,36.7926885 L0.000649759615,38.4069709 L20.6516347,38.4069709 L14.4642988,51.5324894 L15.9360043,52.2162614 L19.7517177,44.1190469 L32.2319755,44.1190469 L36.0476888,52.2162614 L37.51777,51.5324894 L31.3320584,38.4069709 L51.981419,38.4069709 L51.981419,36.7926885 L48.4645951,36.7926885 L48.4645951,0.597930136 L3.51747368,0.597930136 Z M5.14187272,36.7926885 L46.840196,36.7926885 L46.840196,2.21059982 L5.14187272,2.21059982 L5.14187272,36.7926885 Z M22.4433469,38.4069709 L29.5354731,38.4069709 L31.4701323,42.5079899 L20.5119364,42.5079899 L22.4433469,38.4069709 Z" id="Fill-1" fill="#239710"></path>
                <polygon id="Fill-2" fill="#239710" points="18.1672788 10.38619 41.3669459 10.38619 41.3669459 8.77352036 18.1672788 8.77352036"></polygon>
                <polygon id="Fill-3" fill="#239710" points="18.1672788 16.9868471 41.3669459 16.9868471 41.3669459 15.3741774 18.1672788 15.3741774"></polygon>
                <g id="Group-12" transform="translate(0.000000, 1.136306)">
                    <path d="M13.1316418,12.5445686 C14.5188786,12.5445686 15.6494603,13.665374 15.6494603,15.0442066 C15.6494603,16.4230392 14.520503,17.5438446 13.1316418,17.5438446 C11.7427806,17.5438446 10.6138233,16.4230392 10.6138233,15.0442066 C10.6138233,13.665374 11.744405,12.5445686 13.1316418,12.5445686 Z" id="Fill-4" fill="#99D2A1"></path>
                    <mask id="mask-2" fill="white">
                        <use xlink:href="#path-1"></use>
                    </mask>
                    <g id="Clip-7"></g>
                    <polygon id="Fill-6" fill="#239710" mask="url(#mask-2)" points="18.1672788 22.4495858 41.3669459 22.4495858 41.3669459 20.8369161 18.1672788 20.8369161"></polygon>
                    <path d="M10.6138233,21.6432509 C10.6138233,23.0220835 11.7427806,24.142889 13.1316418,24.142889 C14.520503,24.142889 15.6494603,23.0220835 15.6494603,21.6432509 C15.6494603,20.2644184 14.5188786,19.1436129 13.1316418,19.1436129 C11.744405,19.1436129 10.6138233,20.2644184 10.6138233,21.6432509 Z" id="Fill-8" fill="#99D2A1" mask="url(#mask-2)"></path>
                    <polygon id="Fill-9" fill="#239710" mask="url(#mask-2)" points="18.1672788 29.0502428 41.3669459 29.0502428 41.3669459 27.4375731 18.1672788 27.4375731"></polygon>
                    <path d="M13.1316418,25.7426573 C11.744405,25.7426573 10.6138233,26.8634627 10.6138233,28.243908 C10.6138233,29.6211279 11.7427806,30.743546 13.1316418,30.743546 C14.520503,30.743546 15.6494603,29.6227405 15.6494603,28.243908 C15.6494603,26.8634627 14.5188786,25.7426573 13.1316418,25.7426573" id="Fill-10" fill="#99D2A1" mask="url(#mask-2)"></path>
                    <polygon id="Fill-11" fill="#239710" mask="url(#mask-2)" points="12.468887 8.14681837 11.1514994 6.86474597 10.0127957 8.01457946 12.5955901 10.5303442 16.3057175 6.05357312 15.0533059 5.02952787"></polygon>
                </g>
            </g>
        </g>
    </g>
</svg>