<?xml version="1.0" encoding="utf-8"?>
<!-- Generator: Adobe Illustrator 20.1.0, SVG Export Plug-In . SVG Version: 6.00 Build 0)  -->
<svg version="1.1" id="Layer_1" xmlns="http://www.w3.org/2000/svg" xmlns:xlink="http://www.w3.org/1999/xlink" x="0px" y="0px"
	 viewBox="0 0 339 124" style="enable-background:new 0 0 339 124;" xml:space="preserve">
<style type="text/css">
	.st0{fill:#30A448;}
	.st1{fill:#3B3A3C;}
</style>
<g>
	<g>
		<g>
			<path class="st0" d="M71.478,42.338c-0.435,7.337-3.435,14.547-9.029,20.141c-5.874,5.87-13.678,9.107-21.984,9.107
				c-8.303,0-16.109-3.237-21.978-9.107c-5.872-5.871-9.108-13.676-9.108-21.981c0-8.301,3.236-16.111,9.108-21.98
				c5.865-5.87,13.676-9.106,21.977-9.106c8.308,0,16.111,3.237,21.985,9.106c1.034,1.033,1.974,2.127,2.831,3.273l5.957-7.268
				c-0.728-0.859-1.485-1.696-2.291-2.501c-7.604-7.613-17.719-11.8-28.483-11.8c-10.762,0-20.868,4.187-28.476,11.793
				C4.381,19.624,0.186,29.741,0.186,40.498c0,10.759,4.194,20.876,11.802,28.482c7.607,7.611,17.714,11.799,28.477,11.799
				c10.762,0,20.877-4.188,28.481-11.799c9.91-9.909,13.559-23.731,10.97-36.533L71.478,42.338z"/>
			<path class="st1" d="M44.345,58.809c-0.017,0-0.04,0-0.055,0c-6.771,0-11.156-4.942-11.862-5.717L21.519,41.416
				c-1.632-1.705-1.566-4.529,0.141-6.154c1.711-1.632,4.413-1.622,6.034,0.085L38.73,46.891l0,0c0,0,2.403,2.482,5.668,2.447
				c2.611-0.017,5.366-1.597,8.191-4.683L84.028,6.56c1.502-1.812,4.194-2.072,6.015-0.574c1.812,1.503,2.069,4.189,0.571,6.008
				L58.97,50.782C54.422,55.798,49.501,58.809,44.345,58.809z"/>
		</g>
		<g>
			<g>
				<g>
					<path class="st1" d="M121.708,34.323c-7.485,0-12.798-5.293-12.798-14.608c0-9.891,5.872-14.969,13.018-14.969
						c3.638,0,6.327,1.009,8.447,2.423l-0.947,6.372c-2.296-1.834-4.48-2.662-7.103-2.662c-3.85,0-6.649,3.004-6.649,8.663
						c0,5.891,3.017,8.722,7.099,8.722c2.339,0,4.463-0.65,6.981-2.716l0.904,6.01C127.914,33.567,125.116,34.323,121.708,34.323z"
						/>
					<path class="st1" d="M145.91,34.387c-7.322,0-12.64-5.539-12.64-14.783c0-9.255,5.373-14.858,12.697-14.858
						c7.373,0,12.743,5.603,12.743,14.858C158.71,28.848,153.28,34.387,145.91,34.387z M145.91,10.583
						c-3.964,0-6.089,3.716-6.089,9.021c0,5.181,2.184,9.009,6.089,9.009c4.143,0,6.268-3.709,6.268-9.009
						C152.178,14.357,149.931,10.583,145.91,10.583z"/>
					<path class="st1" d="M195.209,33.801V15.178c0-2.474-0.847-4.18-3.293-4.18c-2.076,0-4.024,1.423-5.984,3.53v19.273h-6.709
						V15.178c0-2.474-0.888-4.18-3.356-4.18c-2.065,0-4.02,1.423-5.976,3.53v19.273h-6.716V5.347h5.705l0.618,4.002
						c2.52-2.534,5.246-4.602,8.889-4.602c3.857,0,5.919,1.846,6.934,4.602c2.399-2.534,5.353-4.602,8.991-4.602
						c5.091,0,7.599,3.249,7.599,8.557v20.497H195.209z"/>
					<path class="st1" d="M240.305,33.801V15.178c0-2.474-0.835-4.18-3.284-4.18c-2.083,0-4.034,1.423-5.996,3.53v19.273h-6.707
						V15.178c0-2.474-0.886-4.18-3.341-4.18c-2.071,0-4.026,1.423-5.993,3.53v19.273h-6.699V5.347h5.693l0.623,4.002
						c2.52-2.534,5.263-4.602,8.889-4.602c3.857,0,5.912,1.846,6.931,4.602c2.406-2.534,5.366-4.602,9-4.602
						c5.079,0,7.595,3.249,7.595,8.557v20.497H240.305z"/>
				</g>
				<g>
					<path class="st1" d="M264.63,34.387c-7.327,0-12.634-5.539-12.634-14.783c0-9.255,5.359-14.858,12.677-14.858
						c7.378,0,12.746,5.603,12.746,14.858C277.419,28.848,272.001,34.387,264.63,34.387z M264.63,10.583
						c-3.972,0-6.089,3.716-6.089,9.021c0,5.181,2.177,9.009,6.089,9.009c4.125,0,6.249-3.709,6.249-9.009
						C270.879,14.357,268.648,10.583,264.63,10.583z"/>
					<path class="st1" d="M298.031,33.801V15.178c0-2.474-1.016-4.18-3.478-4.18c-2.124,0-4.177,1.423-6.132,3.588v19.214h-6.707
						V5.347h5.692l0.609,4.002c2.52-2.534,5.38-4.602,9.001-4.602c5.036,0,7.714,3.249,7.714,8.557v20.497H298.031z"/>
				</g>
			</g>
			<g>
				<path class="st1" d="M120.292,76.934c-3.912,0-7.941-1.297-10.509-2.774l0.891-5.892c2.912,2.007,6.49,3.365,9.836,3.365
					c2.905,0,4.477-1.122,4.477-2.948c0-2.004-1.169-2.825-5.478-3.947c-6.547-1.766-9.273-3.771-9.273-8.956
					c0-4.891,3.676-8.358,9.945-8.358c3.52,0,6.76,0.702,9.439,1.994l-0.898,5.899c-2.671-1.601-5.869-2.599-8.54-2.599
					c-2.523,0-3.745,0.997-3.745,2.599c0,1.531,1.005,2.355,5.015,3.477c7.005,1.884,9.741,3.889,9.741,9.244
					C131.191,73.631,127.384,76.934,120.292,76.934z"/>
				<path class="st1" d="M158.071,63.559h-17.319c0.322,5.546,3.113,7.957,7.253,7.957c3.475,0,6.315-1.357,9.285-3.534l0.781,5.534
					C155.159,75.637,151.641,77,147.28,77c-7.542,0-13.183-4.55-13.183-14.79c0-9.254,5.242-14.854,12.285-14.854
					c8.113,0,11.745,6.42,11.745,14.49C158.126,62.438,158.071,63.149,158.071,63.559z M146.216,52.252
					c-2.685,0-4.857,2.229-5.37,6.886h10.731C151.139,54.716,149.466,52.252,146.216,52.252z"/>
				<path class="st1" d="M179.509,76.408V57.79c0-2.472-1.005-4.193-3.456-4.193c-2.127,0-4.206,1.42-6.151,3.597v19.213h-6.712
					V47.952h5.707l0.616,4.002c2.513-2.534,5.368-4.598,8.991-4.598c5.026,0,7.714,3.247,7.714,8.551v20.501H179.509z"/>
				<path class="st1" d="M200.971,76.934c-3.91,0-7.929-1.297-10.506-2.774l0.891-5.892c2.91,2.007,6.487,3.365,9.841,3.365
					c2.898,0,4.468-1.122,4.468-2.948c0-2.004-1.164-2.825-5.47-3.947c-6.551-1.766-9.277-3.771-9.277-8.956
					c0-4.891,3.69-8.358,9.944-8.358c3.515,0,6.757,0.702,9.445,1.994l-0.895,5.899c-2.687-1.601-5.865-2.599-8.55-2.599
					c-2.516,0-3.735,0.997-3.735,2.599c0,1.531,1.005,2.355,5.019,3.477c6.991,1.884,9.721,3.889,9.721,9.244
					C211.869,73.631,208.076,76.934,200.971,76.934z"/>
				<path class="st1" d="M238.746,63.559h-17.311c0.341,5.546,3.133,7.957,7.265,7.957c3.456,0,6.301-1.357,9.282-3.534l0.764,5.534
					C235.851,75.637,232.333,77,227.968,77c-7.538,0-13.19-4.55-13.19-14.79c0-9.254,5.256-14.854,12.302-14.854
					c8.093,0,11.728,6.42,11.728,14.49C238.808,62.438,238.746,63.149,238.746,63.559z M226.915,52.252
					c-2.682,0-4.867,2.229-5.373,6.886h10.736C231.827,54.716,230.151,52.252,226.915,52.252z"/>
			</g>
		</g>
	</g>
	<path class="st1" d="M130.253,110.606h-18.075c0,6.534,3.049,11.105,8.764,11.105c3.102,0,6.369-1.634,8.873-3.92l0.383,2.397
		c-2.344,2.121-5.718,3.756-9.364,3.756c-6.748,0-11.268-5.006-11.268-13.338c0-8.165,4.683-13.332,10.887-13.332
		c6.532,0,9.799,5.713,9.799,12.788V110.606z M120.454,99.397c-4.844,0-7.565,3.753-8.166,9.087h15.24
		C127.367,103.477,124.917,99.397,120.454,99.397"/>
	<path class="st1" d="M155.343,123.4l-0.653-3.756c-2.016,2.339-4.465,4.299-8.167,4.299c-5.659,0-10.505-4.027-10.505-12.627
		c0-9.309,5.553-13.882,11.758-13.882c2.611,0,4.844,0.491,6.857,1.361V85.784h2.56V123.4H155.343z M154.633,101.299
		c-2.013-1.032-4.245-1.634-6.802-1.634c-5.063,0-9.145,3.649-9.145,11.541c0,6.695,3.318,10.398,7.893,10.398
		c3.102,0,5.552-1.853,8.055-4.684V101.299z"/>
	<path class="st1" d="M183.641,123.399l-0.652-3.865c-3.103,2.721-5.933,4.409-9.306,4.409c-5.282,0-7.788-2.992-7.788-8.111V97.815
		h2.56v17.801c0,3.862,1.849,5.988,5.497,5.988c2.832,0,5.769-1.634,8.98-4.629V97.815h2.558v25.584H183.641z"/>
	<path class="st1" d="M204.105,123.943c-6.259,0-11.27-4.9-11.27-13.338c0-8.489,5.065-13.331,11.432-13.331
		c3.211,0,6.043,1.14,8.276,2.827l-0.491,2.612c-2.556-2.178-4.954-3.21-7.892-3.21c-5.444,0-8.654,4.517-8.654,11.102
		c0,6.424,3.102,11.105,8.871,11.105c2.776,0,5.334-0.976,8.003-3.263l0.325,2.393C210.364,122.801,207.534,123.943,204.105,123.943
		"/>
	<path class="st1" d="M235.453,123.4l-0.595-3.429c-2.67,2.339-5.827,3.972-9.04,3.972c-4.3,0-7.728-2.18-7.728-6.804
		c0-5.714,4.355-8.765,16.655-9.907V105c0-3.591-2.121-5.334-5.659-5.334c-2.941,0-5.933,0.819-8.763,2.287l-0.329-2.394
		c2.887-1.308,5.824-2.234,9.201-2.234c5.223,0,8.054,2.668,8.054,7.568V123.4H235.453z M234.744,109.356
		c-10.556,1.142-14.044,3.374-14.044,7.564c0,3.267,2.344,4.79,5.227,4.79c2.721,0,6.043-1.633,8.816-4.081V109.356z"/>
	<path class="st1" d="M253.197,123.833c-3.648,0-6.042-1.524-6.042-5.823V99.992h-3.971v-2.177h3.971V89.99h2.509l0.049,7.825h6.258
		l0.329,2.177h-6.587v17.582c0,2.995,1.196,4.03,4.027,4.03c0.817,0,1.959-0.219,2.56-0.384l0.381,2.07
		C256.027,123.561,254.611,123.833,253.197,123.833"/>
	<path class="st1" d="M265.222,90.902c-1.197,0-2.231-1.089-2.231-2.231c0-1.198,1.034-2.177,2.231-2.177
		c1.197,0,2.179,0.979,2.179,2.177C267.401,89.813,266.419,90.902,265.222,90.902 M263.972,97.815h2.502V123.4h-2.502V97.815z"/>
	<path class="st1" d="M285.414,123.944c-6.366,0-11.266-4.902-11.266-13.338c0-8.489,5.061-13.332,11.266-13.332
		c6.424,0,11.324,4.844,11.324,13.332C296.738,119.042,291.676,123.944,285.414,123.944 M285.414,99.504
		c-5.55,0-8.6,4.516-8.6,11.102c0,6.424,3.102,11.105,8.6,11.105c5.553,0,8.655-4.464,8.655-11.105
		C294.069,104.185,290.968,99.504,285.414,99.504"/>
	<path class="st1" d="M321.12,123.399v-17.801c0-3.866-1.851-5.988-5.499-5.988c-2.831,0-5.769,1.637-8.981,4.629v19.159h-2.557
		V97.815h1.848l0.653,3.865c3.104-2.721,5.934-4.406,9.308-4.406c5.284,0,7.786,2.992,7.786,8.107v18.018H321.12z"/>
	<path class="st1" d="M334.049,105.712c-2.675,0-4.5-1.903-4.5-4.62c0-2.697,1.843-4.6,4.5-4.6c2.679,0,4.504,1.903,4.504,4.62
		C338.553,103.809,336.707,105.712,334.049,105.712 M334.049,96.948c-2.318,0-3.963,1.647-3.963,4.144
		c0,2.519,1.665,4.164,3.963,4.164c2.32,0,3.986-1.645,3.986-4.144C338.035,98.594,336.351,96.948,334.049,96.948 M335.397,103.551
		l-1.525-2.18h-0.555v2.12h-0.733v-5.116h1.387c1.072,0,1.766,0.556,1.766,1.489c0,0.752-0.457,1.228-1.072,1.407l1.507,2.101
		L335.397,103.551z M333.951,99.049h-0.655v1.726h0.637c0.653,0,1.071-0.297,1.071-0.872
		C335.003,99.347,334.626,99.049,333.951,99.049"/>
</g>
</svg>
