<?xml version="1.0" encoding="UTF-8" standalone="no"?>
<svg width="53px" height="56px" viewBox="0 0 53 56" version="1.1" xmlns="http://www.w3.org/2000/svg" xmlns:xlink="http://www.w3.org/1999/xlink">
    <!-- Generator: Sketch 41.2 (35397) - http://www.bohemiancoding.com/sketch -->
    <title>Artboard 2</title>
    <desc>Created with Sketch.</desc>
    <defs></defs>
    <g id="Design" stroke="none" stroke-width="1" fill="none" fill-rule="evenodd">
        <g id="Artboard-2">
            <g id="Group" transform="translate(0.000000, 11.000000)">
                <g id="Page-1">
                    <path d="M2.30208,22.7777474 L2.30208,8.72232632 C3.98688,9.21016842 5.70288,9.46195789 7.34688,9.46195789 C11.73888,9.46195789 15.42288,7.67885263 17.90208,4.39348421 C17.82408,4.76753684 17.82408,42.1679579 17.90208,42.0251158 C15.24888,40.7576947 2.30208,33.9872211 2.30208,22.7777474" id="Fill-1" fill="#99D2A1"></path>
                    <path d="M2.30208,22.7777474 L2.30208,8.72232632 C3.98688,9.21016842 5.70288,9.46195789 7.34688,9.46195789 C11.73888,9.46195789 15.42288,7.67885263 17.90208,4.39348421 C17.82408,4.76753684 17.82408,42.1679579 17.90208,42.0251158 C15.24888,40.7576947 2.30208,33.9872211 2.30208,22.7777474 Z" id="Stroke-3" stroke="#99D2A1" stroke-width="1.2"></path>
                    <g id="Group-7" transform="translate(0.000000, 1.165495)" fill="#299A17">
                        <path d="M20.67588,2.85151579 C20.08788,2.22567368 19.53708,1.48846316 19.04388,0.612042105 C18.61668,-0.144536842 17.38308,-0.144536842 16.95588,0.612042105 C14.42508,5.11035789 10.38588,6.05456842 7.44468,6.05456842 C5.55708,6.05456842 3.54708,5.66356842 1.62948,4.92272632 C1.25988,4.77746316 0.84468,4.83072632 0.52068,5.05467368 C0.19428,5.28104211 -0.00012,5.65388421 -0.00012,6.05335789 L-0.00012,21.7902 C-0.00012,28.0849368 3.39588,33.0359895 7.19988,36.6130947 L9.59988,38.6661474 C13.51068,41.7190947 17.20308,43.3412 17.52948,43.4816211 C17.67948,43.5469895 17.84028,43.5796737 17.99988,43.5796737 C18.15948,43.5796737 18.32028,43.5469895 18.47028,43.4816211 C19.18548,43.1753579 35.99988,35.7996211 35.99988,21.7902 L35.99988,10.1860947 L35.99988,6.76151579 L35.99988,6.05335789 C35.99988,5.65388421 35.80548,5.28104211 35.47908,5.05467368 C35.15508,4.83072632 34.73988,4.77746316 34.37028,4.92272632 C32.45268,5.66356842 30.44268,6.05456842 28.55508,6.05456842 C26.75988,6.05456842 24.55548,5.69867368 22.53468,4.39977895 M2.39988,21.7902 L2.39988,7.73356842 C4.08468,8.22262105 5.80068,8.47441053 7.44468,8.47441053 C11.83668,8.47441053 15.52068,6.69130526 17.99988,3.40593684 C20.47908,6.69130526 24.16308,8.47441053 28.55508,8.47441053 C30.19908,8.47441053 31.91628,8.22262105 33.59988,7.73356842 L33.59988,21.7902 C33.59988,32.9790947 20.65068,39.7653053 17.99988,41.0375684 C15.34668,39.7689368 2.39988,32.9984632 2.39988,21.7902" id="Fill-5"></path>
                    </g>
                    <path d="M26.9466,16.6211316 C26.4258,16.0945526 25.581,16.0945526 25.0602,16.6211316 L15.3318,26.4336579 L10.9398,22.0031316 C10.419,21.4777632 9.5742,21.4777632 9.0534,22.0031316 C8.5326,22.5297105 8.5326,23.3807105 9.0534,23.9072895 L14.3874,29.2892895 C14.6478,29.5519737 14.9898,29.6827105 15.3306,29.6827105 C15.6714,29.6827105 16.0134,29.5519737 16.2738,29.2892895 L26.9466,18.5240789 C27.4686,17.9987105 27.4686,17.1477105 26.9466,16.6211316" id="Fill-8" fill="#299A17"></path>
                </g>
            </g>
        </g>
    </g>
</svg>