<?xml version="1.0" encoding="UTF-8" standalone="no"?>
<svg width="53px" height="56px" viewBox="0 0 53 56" version="1.1" xmlns="http://www.w3.org/2000/svg" xmlns:xlink="http://www.w3.org/1999/xlink">
    <!-- Generator: Sketch 41.2 (35397) - http://www.bohemiancoding.com/sketch -->
    <title>Artboard 2</title>
    <desc>Created with Sketch.</desc>
    <defs>
        <polygon id="path-1" points="35.7003895 34.047619 0 34.047619 0 0.0280238095 35.7003895 0.0280238095 35.7003895 34.047619"></polygon>
        <polygon id="path-3" points="0 53.6904762 45.5781143 53.6904762 45.5781143 1.17202381 0 1.17202381"></polygon>
    </defs>
    <g id="Design" stroke="none" stroke-width="1" fill="none" fill-rule="evenodd">
        <g id="Artboard-2">
            <g id="Page-1" transform="translate(0.000000, 1.000000)">
                <polygon id="Fill-1" fill="#99D2A1" points="17.90136 21.4805119 22.8128457 31.3962262 33.7963314 32.9859881 25.8488457 40.705631 27.7243314 51.6047976 17.90136 46.458369 8.07707429 51.6047976 9.95387429 40.705631 2.00638857 32.9859881 12.9898743 31.3962262"></polygon>
                <g id="Group-10" transform="translate(0.000000, 0.136976)">
                    <polygon id="Stroke-2" stroke="#99D2A1" stroke-width="1.2" points="17.90136 21.3435357 22.8128457 31.25925 33.7963314 32.8490119 25.8488457 40.5686548 27.7243314 51.4678214 17.90136 46.3213929 8.07707429 51.4678214 9.95387429 40.5686548 2.00638857 32.8490119 12.9898743 31.25925"></polygon>
                    <g id="Group-6" transform="translate(0.000000, 19.642857)">
                        <mask id="mask-2" fill="white">
                            <use xlink:href="#path-1"></use>
                        </mask>
                        <g id="Clip-5"></g>
                        <path d="M17.8499714,0.0280238095 C17.1060857,0.0280238095 16.4266,0.448380952 16.0967143,1.11361905 L11.6399714,10.1113571 L1.67374286,11.5544524 C0.937742857,11.6618333 0.325285714,12.1738571 0.0952857143,12.8796905 C-0.134714286,13.5855238 0.0571714286,14.3581429 0.590771429,14.8767143 L7.80225714,21.8800476 L6.10025714,31.770881 C5.97408571,32.5015952 6.27505714,33.2401667 6.877,33.6749286 C7.2174,33.9224286 7.62088571,34.0481429 8.02568571,34.0481429 C8.33717143,34.0481429 8.64997143,33.9735 8.93648571,33.8242143 L17.8499714,29.1544524 L26.7634571,33.8242143 C27.0499714,33.9735 27.3627714,34.0481429 27.6742571,34.0481429 C28.0790571,34.0481429 28.4825429,33.9224286 28.8229429,33.6749286 C29.4248857,33.2401667 29.7258571,32.5015952 29.5996857,31.770881 L27.8976857,21.8800476 L35.1091714,14.8767143 C35.6427714,14.3581429 35.8346571,13.5855238 35.6046571,12.8796905 C35.3733429,12.1738571 34.7622,11.6618333 34.0262,11.5544524 L24.0599714,10.1113571 L19.6032286,1.11361905 C19.2733429,0.448380952 18.5938571,0.0280238095 17.8499714,0.0280238095 M17.8499714,1.97528571 L22.7614571,11.8923095 L33.7449429,13.4807619 L25.7974571,21.2004048 L27.6742571,32.0995714 L17.8499714,26.9544524 L8.02568571,32.0995714 L9.90248571,21.2004048 L1.955,13.4807619 L12.9384857,11.8923095 L17.8499714,1.97528571" id="Fill-4" fill="#299A17" mask="url(#mask-2)"></path>
                    </g>
                    <mask id="mask-4" fill="white">
                        <use xlink:href="#path-3"></use>
                    </mask>
                    <g id="Clip-8"></g>
                    <path d="M33.0030286,19.1007143 L35.2898857,19.1007143 L35.2898857,10.5154762 L33.0030286,10.5154762 L33.0030286,19.1007143 Z M35.7236,7.3425 C35.7236,7.55202381 35.6802286,7.75369048 35.5948,7.94488095 C35.5080571,8.13607143 35.3924,8.30369048 35.2478286,8.44642857 C35.1032571,8.59047619 34.9337143,8.70440476 34.7378857,8.78690476 C34.5433714,8.86809524 34.3396571,8.91 34.1280571,8.91 C33.9177714,8.91 33.718,8.86809524 33.5300571,8.78690476 C33.3434286,8.70440476 33.1765143,8.59047619 33.0319429,8.44642857 C32.8873714,8.30369048 32.7743429,8.13607143 32.6915429,7.94488095 C32.6100571,7.75369048 32.5693143,7.55202381 32.5693143,7.3425 C32.5693143,7.12511905 32.6100571,6.92083333 32.6915429,6.73095238 C32.7743429,6.53845238 32.8873714,6.37083333 33.0319429,6.22678571 C33.1765143,6.0827381 33.3434286,5.96880952 33.5300571,5.88761905 C33.718,5.80642857 33.9177714,5.76583333 34.1280571,5.76583333 C34.3396571,5.76583333 34.5433714,5.80642857 34.7378857,5.88761905 C34.9337143,5.96880952 35.1032571,6.0827381 35.2478286,6.22678571 C35.3924,6.37083333 35.5080571,6.53845238 35.5948,6.73095238 C35.6802286,6.92083333 35.7236,7.12511905 35.7236,7.3425 L35.7236,7.3425 Z" id="Fill-7" fill="#299A17" mask="url(#mask-4)"></path>
                    <path d="M34.1463257,2.94236905 C28.8221543,2.94236905 24.4902686,7.25855952 24.4902686,12.5634405 C24.4902686,16.8887976 27.4211257,20.7034405 31.6150114,21.8374881 L32.27084,22.0142738 L32.27084,26.3304643 L36.5659257,21.8728452 L36.79724,21.8060595 C40.9214686,20.6340357 43.8023829,16.8311786 43.8023829,12.5634405 C43.8023829,7.25855952 39.4704971,2.94236905 34.1463257,2.94236905 M32.0973543,28.3667738 C31.98564,28.3667738 31.6964971,28.3667738 31.4178686,28.21225 C30.8592971,27.99225 30.49524,27.4370119 30.49524,26.7730833 L30.49524,23.347369 C25.8807829,21.7982024 22.7146686,17.4584405 22.7146686,12.5634405 C22.7146686,6.28296429 27.8430114,1.17189286 34.1463257,1.17189286 C40.44964,1.17189286 45.5779829,6.28296429 45.5779829,12.5634405 C45.5779829,17.5383214 42.2778114,21.9749881 37.5187829,23.4390357 L33.2394686,27.88225 C32.9030114,28.214869 32.5350114,28.3667738 32.0973543,28.3667738" id="Fill-9" fill="#299A17" mask="url(#mask-4)"></path>
                </g>
            </g>
        </g>
    </g>
</svg>